<svg width="246" height="71" viewBox="0 0 246 71" fill="none" xmlns="http://www.w3.org/2000/svg">
<g clip-path="url(#clip0_936_1198)">
<g clip-path="url(#clip1_936_1198)">
<path d="M234.322 21.6304L233.725 22.8694H243.811L238.694 13.4621L238.162 14.727C238.162 14.727 229.937 10.8697 222.571 10.4418L221.522 11.3468L222.571 18.0131C222.571 18.0131 231.437 19.6309 234.32 21.6304H234.322Z" fill="#0E4A79"/>
<path d="M209.414 20.2743C209.414 20.2743 206.074 21.7735 204.802 23.9175H194.825C194.825 23.9175 199.067 14.3453 209.414 11.8224C209.414 11.8224 209.032 17.6083 209.414 20.2756V20.2743Z" fill="#0E4A79"/>
<path d="M239.469 35.2043C238.044 34.0785 236.573 33.228 235.246 32.5942C232.683 31.3703 230.674 30.9668 230.674 30.9668V29.1541L221.521 32.1076L228.506 38.9879L229.151 37.0116C240.955 39.7348 241.396 50.7354 236.352 57.4113L235.742 58.1636C235.106 58.901 234.4 59.5716 233.631 60.1549C227.589 64.7577 219.752 63.7437 216.754 63.1235C215.965 62.9599 215.514 62.8209 215.514 62.8209L210.747 64.4388L206.914 65.7704L206.36 65.9653C219.901 74.8219 243.261 69.4872 245.742 52.3478C246.997 43.6561 243.441 38.3514 239.469 35.2043Z" fill="#0E4A79"/>
<path d="M236.354 57.411C236.159 57.6673 235.954 57.9235 235.744 58.1634C232.678 56.904 228.738 57.3497 223.433 60.0007C221.491 60.9684 219.209 62.1092 216.754 63.1233C213.638 64.4126 210.24 65.4989 206.914 65.7702C203.598 66.0523 200.359 65.5194 197.541 63.5744C197.541 63.5744 192.964 60.216 194.824 55.7169C194.824 55.7169 185.743 54.2176 191.677 44.9303C191.677 44.9303 187.116 43.6859 187.675 38.5011C188.106 34.498 191.247 33.5004 191.247 33.5004C191.247 33.5004 185.564 27.0875 192.637 23.7796C197.636 21.4407 209.417 23.2876 209.417 23.2876C209.417 23.2876 205.082 2.94925 216.869 0.251917C217.678 0.0624631 218.515 0.00112915 219.344 0.00112915H222.861C222.861 0.00112915 221.769 18.3795 225.649 23.9173C229.016 28.719 238.042 27.1421 239.472 35.2054C238.047 34.0796 236.576 33.2291 235.249 32.5953C235.249 31.2623 233.614 29.8667 231.836 29.038C228.617 27.5387 222.693 26.3611 221.524 17.2182C220.36 8.0754 220.785 2.5717 220.785 2.5717C220.785 2.5717 215.624 0.82164 212.554 4.04099C206.783 10.0912 210.709 24.6451 210.709 24.6451C210.709 24.6451 197.53 22.8705 193.996 26.3911C192.641 27.7404 191.643 30.0616 193.827 34.0033C193.827 34.0033 190.68 36.3585 191.32 40.2893C191.965 44.2161 194.467 45.0039 194.467 45.0039C194.467 45.0039 191.606 48.0038 192.467 51.6429C193.323 55.2875 196.901 54.8582 196.901 54.8582C196.901 54.8582 194.58 62.2196 202.621 63.6426C213.923 65.6448 222.898 59.4282 225.635 58.192C229.031 56.6559 232.893 56.0849 236.355 57.4138L236.354 57.411Z" fill="#279552"/>
</g>
<path d="M1.80078 43.4812V50.7561C1.80078 51.1 1.81888 51.375 1.85869 51.5813C1.90212 51.784 1.96908 51.9469 2.06137 52.0663C2.15729 52.193 2.28035 52.2763 2.43055 52.3197C2.58437 52.3595 2.77801 52.3776 3.00964 52.3776H4.21851V52.1098H3.95791C3.55617 52.1098 3.29919 51.9867 3.18337 51.7406C3.06755 51.4945 3.00964 51.1669 3.00964 50.7561V43.4812H1.80078Z" fill="#143E71"/>
<path d="M6.82951 52.3776V47.2236C7.00685 47.0318 7.20954 46.8671 7.43756 46.7314C7.66377 46.5921 7.91531 46.5215 8.19038 46.5215C8.59937 46.5215 8.93959 46.6518 9.21104 46.9124C9.35038 47.0481 9.46077 47.2363 9.54402 47.477C9.62545 47.7195 9.66708 48.0036 9.66708 48.3312V52.3776H10.8759V48.3312C10.8759 47.8534 10.8108 47.4535 10.6805 47.1295C10.5502 46.8074 10.3765 46.5559 10.1593 46.3767C9.94215 46.1885 9.69784 46.0636 9.4282 46.0003C9.16218 45.9388 8.87806 45.9062 8.57403 45.9062C8.17771 45.9062 7.83207 45.9786 7.5389 46.1234C7.24392 46.2681 7.00685 46.4238 6.82951 46.5866H6.7716C6.70283 46.4238 6.58339 46.2935 6.40966 46.1958C6.23955 46.0998 5.97715 46.051 5.62064 46.051H4.40454V46.3188H4.67237C5.08136 46.3188 5.34195 46.4419 5.45415 46.688C5.56454 46.9341 5.62064 47.2562 5.62064 47.6507V52.3776H6.82951Z" fill="#143E71"/>
<path d="M12.5418 47.9403C12.5418 48.3656 12.6431 48.7293 12.8458 49.0333C13.0521 49.3337 13.2873 49.5509 13.5479 49.6848C13.4502 49.7536 13.3471 49.8422 13.2367 49.9526C13.1299 50.0648 13.0774 50.2205 13.0774 50.4232C13.0774 50.6313 13.1299 50.7996 13.2367 50.9299C13.3471 51.0602 13.4719 51.1597 13.6131 51.2266C13.2113 51.3624 12.8639 51.5813 12.5707 51.8854C12.2757 52.1858 12.1292 52.5531 12.1292 52.9929C12.1292 53.3784 12.2088 53.6987 12.368 53.9556C12.5273 54.2162 12.7336 54.4298 12.9906 54.5999C13.2656 54.7736 13.5769 54.8931 13.9243 54.9618C14.2754 55.0342 14.6645 55.0704 15.0898 55.0704C15.5277 55.0704 15.924 55.0342 16.2769 54.9618C16.6334 54.8931 16.9429 54.7736 17.2035 54.5999C17.4786 54.4298 17.6903 54.2162 17.8405 53.9556C17.9889 53.6987 18.0649 53.3784 18.0649 52.9929C18.0649 52.6111 17.9853 52.2907 17.826 52.0301C17.6704 51.7696 17.4568 51.5506 17.1818 51.3714C16.6352 51.0583 15.9385 50.9009 15.0898 50.9009C14.1433 50.9009 13.671 50.7417 13.671 50.4232C13.671 50.1101 14.1433 49.9526 15.0898 49.9526C15.4463 49.9526 15.7847 49.9201 16.1032 49.8513C16.4253 49.7843 16.6968 49.6758 16.9139 49.5256C17.1492 49.3717 17.3338 49.1636 17.4641 48.903C17.5944 48.6424 17.6595 48.3221 17.6595 47.9403C17.6595 47.5838 17.569 47.2797 17.3917 47.0282C17.2125 46.773 16.9863 46.5776 16.7112 46.4419V46.3767L17.5944 46.2537V45.9062H15.0898C14.7459 45.9062 14.4166 45.9406 14.0981 46.0075C13.7832 46.0763 13.5117 46.1867 13.2801 46.3405C13.0629 46.4907 12.8838 46.6952 12.7444 46.9558C12.6087 47.2164 12.5418 47.5458 12.5418 47.9403ZM16.4434 47.9403C16.4434 48.2298 16.409 48.4723 16.3421 48.6641C16.2733 48.8524 16.1774 49.0098 16.0525 49.1347C15.8209 49.3663 15.4988 49.4821 15.0898 49.4821C14.6935 49.4821 14.3768 49.3663 14.1415 49.1347C14.0347 49.0098 13.9424 48.8524 13.8664 48.6641C13.7886 48.4723 13.7506 48.2298 13.7506 47.9403C13.7506 47.6417 13.7886 47.3938 13.8664 47.1947C13.9424 46.992 14.0347 46.8309 14.1415 46.7097C14.3768 46.4889 14.6935 46.3767 15.0898 46.3767C15.4698 46.3767 15.7919 46.4998 16.0525 46.7459C16.3131 46.992 16.4434 47.3901 16.4434 47.9403ZM14.4962 51.3714L15.2346 51.4293C16.3149 51.585 16.856 52.1062 16.856 52.9929C16.856 53.5286 16.6913 53.9194 16.3638 54.1656C16.0344 54.4117 15.611 54.5347 15.0898 54.5347C14.5831 54.5347 14.165 54.4117 13.8375 54.1656C13.5081 53.9194 13.3453 53.5286 13.3453 52.9929C13.3453 52.5531 13.4502 52.2093 13.6638 51.9578C13.8755 51.7026 14.1524 51.5071 14.4962 51.3714Z" fill="#143E71"/>
<path d="M24.0055 52.3776V48.7438C24.0055 48.1412 23.9403 47.6507 23.81 47.2743C23.6798 46.8979 23.506 46.6065 23.2889 46.3984C23.0663 46.2066 22.8111 46.0763 22.5216 46.0075C22.2356 45.9406 21.9443 45.9062 21.6457 45.9062C21.4231 45.9062 21.215 45.9189 21.0231 45.9424C20.8349 45.9623 20.6431 45.984 20.4513 46.0075C20.0405 46.1053 19.76 46.2283 19.6116 46.3767C19.4469 46.5414 19.351 46.7278 19.3221 46.9341C19.2931 47.1422 19.2786 47.3612 19.2786 47.5928H19.8939C19.9898 47.1549 20.1636 46.8527 20.4151 46.688C20.6703 46.5251 20.9906 46.4419 21.3778 46.4419C21.8013 46.4419 22.1379 46.5848 22.384 46.869C22.5035 47.0481 22.6012 47.2888 22.6736 47.5928C22.7496 47.8932 22.7894 48.2769 22.7894 48.7438H22.384C21.9153 48.7438 21.4756 48.7709 21.0666 48.8234C20.6558 48.8777 20.2939 48.9808 19.9808 49.1347C19.6623 49.2704 19.4107 49.4604 19.228 49.7065C19.0434 49.9526 18.9529 50.2621 18.9529 50.6331C18.9529 51.0004 19.0198 51.3045 19.1556 51.5452C19.2949 51.7876 19.4596 51.9831 19.6478 52.1315C19.8396 52.2672 20.0495 52.3667 20.2776 52.4283C20.5038 52.4898 20.7119 52.5224 20.9001 52.5224C21.4213 52.5224 21.8303 52.4391 22.1307 52.2763C22.4347 52.1134 22.6537 51.9415 22.7894 51.7623H22.8545L23.3251 52.3776H24.0055ZM22.7894 49.2722V51.1036C22.6537 51.3117 22.4872 51.4981 22.2899 51.661C22.0909 51.8257 21.8285 51.9071 21.5009 51.9071C21.1426 51.9071 20.8494 51.8039 20.6178 51.5958C20.5056 51.4854 20.4115 51.3533 20.3355 51.1977C20.2631 51.0384 20.2269 50.8502 20.2269 50.6331C20.2269 50.2241 20.4169 49.8947 20.7987 49.6486C21.1842 49.3989 21.7126 49.2722 22.384 49.2722H22.7894Z" fill="#143E71"/>
<path d="M30.765 46.051H26.6534C26.2136 46.051 25.9078 46.1596 25.7341 46.3767C25.6364 46.4744 25.5748 46.5866 25.5459 46.7169C25.5169 46.8472 25.5024 46.9812 25.5024 47.1151V47.7955H25.7703C25.7703 47.4155 25.9078 47.1187 26.1829 46.9051C26.4579 46.6934 26.8814 46.5866 27.4569 46.5866H28.9987L25.5024 52.1315V52.3776H30.765V51.8419H27.1311L30.765 46.051Z" fill="#143E71"/>
<path d="M38.8852 48.266L40.2388 50.5462C40.6478 51.2755 41.0459 51.7895 41.4332 52.088C41.7752 52.3776 42.186 52.5224 42.6638 52.5224C42.8411 52.5224 43.0004 52.5043 43.1416 52.4717C43.2863 52.4373 43.4021 52.4065 43.489 52.3776V52.1098C43.1307 52.0718 42.8303 51.9487 42.5842 51.7406C42.443 51.6157 42.2946 51.4619 42.1354 51.2773C41.9797 51.0945 41.8205 50.8502 41.6576 50.5462L40.2388 48.2081C40.4705 48.1411 40.7112 48.0597 40.9627 47.962C41.2179 47.8661 41.4567 47.7285 41.6793 47.5494C41.8965 47.372 42.0702 47.1494 42.2005 46.8834C42.3308 46.6138 42.396 46.288 42.396 45.9062C42.396 45.3705 42.2747 44.9434 42.034 44.6249C41.797 44.3028 41.5002 44.0585 41.1437 43.8938C40.7998 43.7165 40.4343 43.6025 40.0434 43.5536C39.6525 43.5066 39.3141 43.4812 39.03 43.4812H35.512V43.7491H35.8015C36.196 43.7491 36.453 43.8721 36.5688 44.1182C36.6883 44.3644 36.7498 44.6937 36.7498 45.1027V52.3776H37.9586V48.266H38.8852ZM38.9648 47.7955C38.6065 47.7955 38.2717 47.7484 37.9586 47.6507V44.0965C38.2717 44.0006 38.6065 43.9517 38.9648 43.9517C39.1566 43.9517 39.3702 43.9916 39.6018 44.0676C39.8335 44.1454 40.0597 44.2594 40.2823 44.4078C40.4994 44.558 40.6804 44.7552 40.8252 45.0014C40.9699 45.2475 41.0423 45.5497 41.0423 45.9062C41.0423 46.25 40.9699 46.536 40.8252 46.7676C40.6804 46.9992 40.4994 47.1929 40.2823 47.3467C40.0597 47.4969 39.8335 47.6109 39.6018 47.6869C39.3702 47.7593 39.1566 47.7955 38.9648 47.7955Z" fill="#257C52"/>
<path d="M49.2999 49.417L49.3216 48.8668C49.3216 47.9222 49.1008 47.1929 48.6629 46.6807C48.2232 46.165 47.5445 45.9062 46.6288 45.9062C46.2036 45.9062 45.8217 45.9931 45.4851 46.1668C45.1521 46.3369 44.8698 46.5704 44.6382 46.869C44.4011 47.173 44.2256 47.5241 44.1098 47.9186C43.9939 48.3149 43.936 48.7474 43.936 49.2143C43.936 49.6685 43.9939 50.0938 44.1098 50.4883C44.2256 50.8846 44.4011 51.2339 44.6382 51.5379C44.8698 51.8383 45.1612 52.0772 45.5141 52.2545C45.8706 52.4319 46.2832 52.5224 46.7519 52.5224C47.2731 52.5224 47.7309 52.4138 48.1272 52.1966C48.5218 51.9759 48.8728 51.6103 49.1769 51.1036L48.909 50.9009C48.6774 51.2447 48.4132 51.5071 48.12 51.6899C47.825 51.8745 47.4577 51.965 47.0197 51.965C46.7302 51.965 46.4732 51.8998 46.2524 51.7696C46.0353 51.6393 45.8434 51.4655 45.6806 51.2484C45.3657 50.7815 45.21 50.1698 45.21 49.417H49.2999ZM48.0476 48.8668H45.21C45.21 48.1538 45.3476 47.5765 45.6227 47.1368C45.7421 46.9196 45.8851 46.7513 46.0497 46.6301C46.218 46.5052 46.4117 46.4419 46.6288 46.4419C47.1066 46.4419 47.4613 46.6518 47.6929 47.0716C47.9282 47.4879 48.0476 48.0851 48.0476 48.8668Z" fill="#257C52"/>
<path d="M53.4706 45.9062C52.9639 45.9062 52.5242 45.9931 52.1532 46.1668C51.7858 46.3369 51.4764 46.5704 51.2266 46.869C50.9805 47.173 50.7996 47.5241 50.6837 47.9186C50.5679 48.3149 50.51 48.7474 50.51 49.2143C50.51 49.6685 50.5679 50.0938 50.6837 50.4883C50.7996 50.8846 50.9805 51.2339 51.2266 51.5379C51.4764 51.8383 51.7858 52.0772 52.1532 52.2545C52.5242 52.4319 52.9639 52.5224 53.4706 52.5224C54.0009 52.5224 54.4714 52.4138 54.8822 52.1966C55.2966 51.9759 55.6531 51.6103 55.9535 51.1036L55.6857 50.9009C55.454 51.2447 55.1898 51.5071 54.8967 51.6899C54.6017 51.8745 54.2162 51.965 53.7385 51.965C53.3946 51.965 53.1033 51.8962 52.8626 51.7551C52.6201 51.6103 52.4174 51.4149 52.2545 51.1687C52.0899 50.919 51.9686 50.6258 51.8926 50.2929C51.8202 49.9563 51.784 49.5961 51.784 49.2143C51.784 48.8198 51.8202 48.4542 51.8926 48.1212C51.9686 47.7846 52.0899 47.4915 52.2545 47.2454C52.4174 46.9956 52.6201 46.8002 52.8626 46.659C53.1033 46.5143 53.3946 46.4419 53.7385 46.4419C54.2162 46.4419 54.618 46.583 54.9473 46.8617C55.2749 47.1422 55.454 47.5639 55.483 48.1285H55.7508C55.7508 47.8787 55.7508 47.6616 55.7508 47.477C55.7508 47.2942 55.7364 47.1332 55.7074 46.992C55.6676 46.7368 55.5717 46.5324 55.4178 46.3767C55.2532 46.2138 55.0071 46.0944 54.6795 46.022C54.3501 45.946 53.9484 45.9062 53.4706 45.9062Z" fill="#257C52"/>
<path d="M58.7089 52.3776V47.3829C58.993 46.9341 59.4183 46.7097 59.9829 46.7097C60.4896 46.7097 60.8443 46.8454 61.047 47.1151L61.6044 46.7097C61.5211 46.5704 61.4469 46.4545 61.38 46.3622C61.3112 46.2663 61.2298 46.1813 61.1339 46.1089C61.0361 46.0419 60.9095 45.9913 60.7502 45.9569C60.5946 45.9243 60.448 45.9062 60.3086 45.9062C59.9123 45.9062 59.5793 45.9894 59.3097 46.1523C59.0437 46.317 58.8428 46.4817 58.7089 46.6446H58.6293C58.5569 46.4419 58.4338 46.2935 58.2601 46.1958C58.09 46.0998 57.8294 46.051 57.4783 46.051H56.407V46.3188H56.5518C56.9463 46.3188 57.1996 46.4419 57.3118 46.688C57.4222 46.9341 57.4783 47.2562 57.4783 47.6507V52.3776H58.7089Z" fill="#257C52"/>
<path d="M66.779 46.051V51.1832C66.5998 51.3769 66.3971 51.5452 66.1709 51.6899C65.9483 51.8347 65.7004 51.9071 65.4253 51.9071C65.2462 51.9071 65.067 51.8745 64.8897 51.8057C64.7105 51.7334 64.5531 51.6302 64.4192 51.4945C64.2834 51.3606 64.1694 51.176 64.0789 50.9443C63.9921 50.7091 63.9486 50.4195 63.9486 50.0757V47.6507C63.9486 46.9956 63.8654 46.5577 63.7025 46.3405C63.6048 46.2157 63.4781 46.136 63.3189 46.1017C63.1596 46.0691 62.9642 46.051 62.7325 46.051H61.6467V46.3188H61.7915C62.186 46.3188 62.443 46.4419 62.5588 46.688C62.6746 46.9341 62.7325 47.2562 62.7325 47.6507V50.0757C62.7325 50.5679 62.7977 50.9697 62.928 51.2773C63.0583 51.5868 63.2338 51.8383 63.4564 52.0301C63.6736 52.2093 63.9143 52.3342 64.1803 52.4066C64.4499 52.4826 64.7268 52.5224 65.0127 52.5224C65.4217 52.5224 65.7746 52.45 66.0696 52.3052C66.3627 52.1604 66.5998 52.0066 66.779 51.8419H66.8441L67.3146 52.3776H67.9951V46.051H66.779Z" fill="#257C52"/>
<path d="M71.2606 44.6322C71.2606 44.4006 71.1882 44.2015 71.0435 44.0314C70.8987 43.8577 70.7177 43.7708 70.5006 43.7708C70.0898 43.7708 69.8853 43.9699 69.8853 44.3644C69.8853 44.596 69.9595 44.7987 70.1097 44.9724C70.2581 45.1425 70.4372 45.2258 70.6453 45.2258C71.0543 45.2258 71.2606 45.0285 71.2606 44.6322ZM71.3402 52.3776V47.6507C71.3402 46.9956 71.257 46.5577 71.0941 46.3405C70.9964 46.2157 70.8697 46.136 70.7105 46.1017C70.5548 46.0691 70.363 46.051 70.1314 46.051H68.9153V46.3188H69.1831C69.5921 46.3188 69.8527 46.4419 69.9649 46.688C70.0753 46.9341 70.1314 47.2562 70.1314 47.6507V52.3776H71.3402Z" fill="#257C52"/>
<path d="M73.4969 46.5866V50.7561C73.4969 51.375 73.6453 51.8238 73.9457 52.1025C74.2498 52.3812 74.6352 52.5224 75.1039 52.5224C75.3356 52.5224 75.5419 52.5007 75.7265 52.4572C75.9147 52.4174 76.0757 52.3704 76.2115 52.3125C76.3454 52.26 76.4576 52.2039 76.5444 52.146C76.6349 52.0844 76.7145 52.0229 76.7833 51.965L76.6603 51.6972C76.5245 51.7696 76.3816 51.8329 76.2332 51.8854C76.083 51.9397 75.8893 51.965 75.6541 51.965C75.0261 51.965 74.713 51.5633 74.713 50.7561V46.5866H76.3128V46.051H74.713V44.0169H74.1557L73.4969 44.8349V46.051H72.5559V46.5866H73.4969Z" fill="#257C52"/>
<path d="M79.2082 46.5866H79.1503C79.0815 46.4238 78.9621 46.2935 78.7883 46.1958C78.6182 46.0998 78.3558 46.051 77.9993 46.051H76.7832V46.3188H77.051C77.46 46.3188 77.7206 46.4419 77.8328 46.688C77.9432 46.9341 77.9993 47.2562 77.9993 47.6507V52.3776H79.2082V47.2236C79.3855 47.0318 79.5882 46.8671 79.8162 46.7314C80.0424 46.5921 80.294 46.5215 80.569 46.5215C80.9056 46.5215 81.1662 46.6572 81.3508 46.9269C81.539 47.1929 81.6331 47.6616 81.6331 48.3312V52.3776H82.8492V48.3312C82.8492 48.1973 82.8438 48.0308 82.8348 47.8317C82.8293 47.629 82.813 47.4806 82.7841 47.3829C82.851 47.2779 82.9361 47.1766 83.0374 47.0789C83.1424 46.983 83.2564 46.887 83.3777 46.7893C83.517 46.7224 83.6545 46.6626 83.7903 46.6084C83.9242 46.5504 84.0617 46.5215 84.2029 46.5215C84.5449 46.5215 84.8073 46.6572 84.9919 46.9269C85.1747 47.1929 85.267 47.6616 85.267 48.3312V52.3776H86.4831V48.3312C86.4831 47.8534 86.4288 47.4535 86.3238 47.1295C86.2225 46.8074 86.0886 46.5559 85.9257 46.3767C85.7465 46.1885 85.5438 46.0636 85.3176 46.0003C85.095 45.9388 84.8616 45.9062 84.6155 45.9062C84.2282 45.9062 83.85 45.9894 83.479 46.1523C83.1116 46.317 82.813 46.5504 82.5814 46.8545C82.4167 46.469 82.1923 46.2157 81.9082 46.0944C81.6277 45.9695 81.3092 45.9062 80.9527 45.9062C80.5564 45.9062 80.2107 45.9786 79.9176 46.1234C79.6226 46.2681 79.3855 46.4238 79.2082 46.5866Z" fill="#257C52"/>
<path d="M93.3856 49.417L93.4073 48.8668C93.4073 47.9222 93.1865 47.1929 92.7486 46.6807C92.3088 46.165 91.6302 45.9062 90.7145 45.9062C90.2893 45.9062 89.9074 45.9931 89.5708 46.1668C89.2378 46.3369 88.9555 46.5704 88.7239 46.869C88.4868 47.173 88.3113 47.5241 88.1955 47.9186C88.0796 48.3149 88.0217 48.7474 88.0217 49.2143C88.0217 49.6685 88.0796 50.0938 88.1955 50.4883C88.3113 50.8846 88.4868 51.2339 88.7239 51.5379C88.9555 51.8383 89.2469 52.0772 89.5998 52.2545C89.9563 52.4319 90.3689 52.5224 90.8376 52.5224C91.3588 52.5224 91.8166 52.4138 92.2129 52.1966C92.6074 51.9759 92.9585 51.6103 93.2625 51.1036L92.9947 50.9009C92.7631 51.2447 92.4989 51.5071 92.2057 51.6899C91.9107 51.8745 91.5434 51.965 91.1054 51.965C90.8159 51.965 90.5589 51.8998 90.3381 51.7696C90.121 51.6393 89.9291 51.4655 89.7663 51.2484C89.4514 50.7815 89.2957 50.1698 89.2957 49.417H93.3856ZM92.1333 48.8668H89.2957C89.2957 48.1538 89.4333 47.5765 89.7083 47.1368C89.8278 46.9196 89.9707 46.7513 90.1354 46.6301C90.3037 46.5052 90.4974 46.4419 90.7145 46.4419C91.1923 46.4419 91.547 46.6518 91.7786 47.0716C92.0139 47.4879 92.1333 48.0851 92.1333 48.8668Z" fill="#257C52"/>
<path d="M96.362 52.3776V47.2236C96.5393 47.0318 96.742 46.8671 96.97 46.7314C97.1962 46.5921 97.4478 46.5215 97.7229 46.5215C98.1318 46.5215 98.4721 46.6518 98.7435 46.9124C98.8829 47.0481 98.9932 47.2363 99.0765 47.477C99.1579 47.7195 99.1995 48.0036 99.1995 48.3312V52.3776H100.408V48.3312C100.408 47.8534 100.343 47.4535 100.213 47.1295C100.083 46.8074 99.9089 46.5559 99.6918 46.3767C99.4746 46.1885 99.2303 46.0636 98.9607 46.0003C98.6946 45.9388 98.4105 45.9062 98.1065 45.9062C97.7102 45.9062 97.3645 45.9786 97.0714 46.1234C96.7764 46.2681 96.5393 46.4238 96.362 46.5866H96.3041C96.2353 46.4238 96.1159 46.2935 95.9421 46.1958C95.772 46.0998 95.5096 46.051 95.1531 46.051H93.937V46.3188H94.2048C94.6138 46.3188 94.8744 46.4419 94.9866 46.688C95.097 46.9341 95.1531 47.2562 95.1531 47.6507V52.3776H96.362Z" fill="#257C52"/>
<path d="M102.545 46.5866V50.7561C102.545 51.375 102.693 51.8238 102.994 52.1025C103.298 52.3812 103.683 52.5224 104.152 52.5224C104.384 52.5224 104.59 52.5007 104.775 52.4572C104.963 52.4174 105.124 52.3704 105.26 52.3125C105.393 52.26 105.506 52.2039 105.593 52.146C105.683 52.0844 105.763 52.0229 105.831 51.965L105.708 51.6972C105.573 51.7696 105.43 51.8329 105.281 51.8854C105.131 51.9397 104.937 51.965 104.702 51.965C104.074 51.965 103.761 51.5633 103.761 50.7561V46.5866H105.361V46.051H103.761V44.0169H103.204L102.545 44.8349V46.051H101.604V46.5866H102.545Z" fill="#257C52"/>
<path d="M117.91 46.3188H118.2C118.2 45.9098 118.185 45.5226 118.156 45.1606C118.131 44.7951 118.029 44.5019 117.852 44.2847C117.606 43.9952 117.215 43.7455 116.679 43.5319C116.147 43.3202 115.503 43.2134 114.747 43.2134C114.171 43.2134 113.632 43.3419 113.125 43.5971C112.618 43.8486 112.181 44.1943 111.815 44.6322C111.428 45.0575 111.124 45.5642 110.903 46.1523C110.686 46.7423 110.577 47.3793 110.577 48.0633C110.577 49.3663 110.954 50.4485 111.706 51.3063C112.063 51.7225 112.503 52.0501 113.024 52.2907C113.545 52.526 114.119 52.6454 114.747 52.6454C115.161 52.6454 115.545 52.6111 115.898 52.5441C116.254 52.4753 116.585 52.3541 116.889 52.1749C117.188 51.9831 117.47 51.7478 117.736 51.4728C118.006 51.1977 118.25 50.8484 118.467 50.4232L118.2 50.2205C117.818 50.8394 117.385 51.3099 116.904 51.632C116.426 51.9505 115.843 52.1098 115.159 52.1098C114.584 52.1098 114.095 51.994 113.69 51.7623C113.288 51.5307 112.951 51.223 112.676 50.8358C112.416 50.4557 112.222 50.025 112.097 49.5473C111.976 49.0659 111.916 48.57 111.916 48.0633C111.916 47.258 112 46.583 112.17 46.0365C112.343 45.4864 112.579 45.0412 112.879 44.6973C113.183 44.3553 113.527 44.111 113.914 43.9662C114.305 43.8215 114.719 43.7491 115.159 43.7491C115.912 43.7491 116.517 43.9554 116.976 44.3644C117.434 44.7752 117.745 45.4266 117.91 46.3188Z" fill="#257C52"/>
<path d="M119.555 49.2143C119.555 50.1608 119.816 50.9353 120.337 51.5379C120.583 51.8383 120.887 52.0772 121.249 52.2545C121.611 52.4319 122.033 52.5224 122.516 52.5224C122.979 52.5224 123.396 52.4319 123.768 52.2545C124.139 52.0772 124.452 51.8383 124.709 51.5379C124.97 51.2339 125.16 50.8846 125.281 50.4883C125.406 50.0938 125.469 49.6685 125.469 49.2143C125.469 48.7474 125.406 48.3149 125.281 47.9186C125.16 47.5241 124.97 47.173 124.709 46.869C124.452 46.5704 124.139 46.3369 123.768 46.1668C123.396 45.9931 122.979 45.9062 122.516 45.9062C122.033 45.9062 121.611 45.9931 121.249 46.1668C120.887 46.3369 120.583 46.5704 120.337 46.869C119.816 47.4734 119.555 48.2552 119.555 49.2143ZM124.203 49.2143C124.203 49.9961 124.051 50.6476 123.747 51.1687C123.596 51.4149 123.415 51.6103 123.204 51.7551C122.99 51.8962 122.762 51.965 122.516 51.965C122.27 51.965 122.042 51.8962 121.836 51.7551C121.633 51.6103 121.454 51.4149 121.3 51.1687C120.985 50.662 120.829 50.0105 120.829 49.2143C120.829 48.409 120.985 47.7521 121.3 47.2454C121.454 46.9956 121.633 46.8002 121.836 46.659C122.042 46.5143 122.27 46.4419 122.516 46.4419C122.762 46.4419 122.99 46.5143 123.204 46.659C123.415 46.8002 123.596 46.9956 123.747 47.2454C124.051 47.7629 124.203 48.418 124.203 49.2143Z" fill="#257C52"/>
<path d="M128.471 46.5866H128.413C128.344 46.4238 128.225 46.2935 128.051 46.1958C127.881 46.0998 127.619 46.051 127.262 46.051H126.046V46.3188H126.314C126.723 46.3188 126.984 46.4419 127.096 46.688C127.206 46.9341 127.262 47.2562 127.262 47.6507V52.3776H128.471V47.2236C128.648 47.0318 128.851 46.8671 129.079 46.7314C129.305 46.5921 129.557 46.5215 129.832 46.5215C130.169 46.5215 130.429 46.6572 130.614 46.9269C130.802 47.1929 130.896 47.6616 130.896 48.3312V52.3776H132.112V48.3312C132.112 48.1973 132.107 48.0308 132.098 47.8317C132.092 47.629 132.076 47.4806 132.047 47.3829C132.114 47.2779 132.199 47.1766 132.3 47.0789C132.405 46.983 132.519 46.887 132.641 46.7893C132.78 46.7224 132.917 46.6626 133.053 46.6084C133.187 46.5504 133.325 46.5215 133.466 46.5215C133.808 46.5215 134.07 46.6572 134.255 46.9269C134.438 47.1929 134.53 47.6616 134.53 48.3312V52.3776H135.746V48.3312C135.746 47.8534 135.692 47.4535 135.587 47.1295C135.485 46.8074 135.351 46.5559 135.189 46.3767C135.009 46.1885 134.807 46.0636 134.581 46.0003C134.358 45.9388 134.125 45.9062 133.878 45.9062C133.491 45.9062 133.113 45.9894 132.742 46.1523C132.375 46.317 132.076 46.5504 131.844 46.8545C131.68 46.469 131.455 46.2157 131.171 46.0944C130.891 45.9695 130.572 45.9062 130.216 45.9062C129.819 45.9062 129.474 45.9786 129.181 46.1234C128.886 46.2681 128.648 46.4238 128.471 46.5866Z" fill="#257C52"/>
<path d="M139.051 54.9473V52.1098C139.257 52.2075 139.494 52.298 139.76 52.3848C140.024 52.4753 140.35 52.5224 140.737 52.5224C141.175 52.5224 141.555 52.4319 141.874 52.2545C142.196 52.0772 142.469 51.8383 142.692 51.5379C142.894 51.2339 143.046 50.8846 143.148 50.4883C143.253 50.0938 143.307 49.6685 143.307 49.2143C143.307 48.2407 143.101 47.4589 142.692 46.869C142.498 46.5704 142.247 46.3369 141.939 46.1668C141.629 45.9931 141.277 45.9062 140.882 45.9062C140.375 45.9062 139.977 45.9894 139.688 46.1523C139.402 46.317 139.19 46.4817 139.051 46.6446H138.993C138.924 46.4419 138.805 46.2935 138.631 46.1958C138.461 46.0998 138.198 46.051 137.842 46.051H136.626V46.3188H136.894C137.303 46.3188 137.563 46.4419 137.675 46.688C137.786 46.9341 137.842 47.2562 137.842 47.6507V54.9473H139.051ZM139.051 51.5741V47.2598C139.19 47.0427 139.369 46.8527 139.586 46.688C139.697 46.621 139.827 46.5631 139.977 46.5143C140.126 46.4672 140.29 46.4419 140.469 46.4419C140.745 46.4419 140.976 46.5143 141.164 46.659C141.356 46.8002 141.523 46.9956 141.664 47.2454C141.783 47.4915 141.87 47.7846 141.924 48.1212C141.982 48.4542 142.011 48.8198 142.011 49.2143C142.011 49.5961 141.982 49.9563 141.924 50.2929C141.87 50.6258 141.769 50.919 141.62 51.1687C141.485 51.4149 141.313 51.6103 141.106 51.7551C140.898 51.8962 140.638 51.965 140.325 51.965C140.122 51.965 139.908 51.9252 139.688 51.8419C139.471 51.7605 139.257 51.6718 139.051 51.5741Z" fill="#257C52"/>
<path d="M149.509 52.3776V48.7438C149.509 48.1412 149.444 47.6507 149.314 47.2743C149.183 46.8979 149.01 46.6065 148.793 46.3984C148.57 46.2066 148.315 46.0763 148.025 46.0075C147.739 45.9406 147.448 45.9062 147.149 45.9062C146.927 45.9062 146.719 45.9189 146.527 45.9424C146.339 45.9623 146.147 45.984 145.955 46.0075C145.544 46.1053 145.264 46.2283 145.115 46.3767C144.951 46.5414 144.855 46.7278 144.826 46.9341C144.797 47.1422 144.782 47.3612 144.782 47.5928H145.398C145.493 47.1549 145.667 46.8527 145.919 46.688C146.174 46.5251 146.494 46.4419 146.882 46.4419C147.305 46.4419 147.642 46.5848 147.888 46.869C148.007 47.0481 148.105 47.2888 148.177 47.5928C148.253 47.8932 148.293 48.2769 148.293 48.7438H147.888C147.419 48.7438 146.979 48.7709 146.57 48.8234C146.159 48.8777 145.798 48.9808 145.484 49.1347C145.166 49.2704 144.914 49.4604 144.732 49.7065C144.547 49.9526 144.457 50.2621 144.457 50.6331C144.457 51.0004 144.524 51.3045 144.659 51.5452C144.799 51.7876 144.963 51.9831 145.151 52.1315C145.343 52.2672 145.553 52.3667 145.781 52.4283C146.007 52.4898 146.216 52.5224 146.404 52.5224C146.925 52.5224 147.334 52.4391 147.634 52.2763C147.938 52.1134 148.157 51.9415 148.293 51.7623H148.358L148.829 52.3776H149.509ZM148.293 49.2722V51.1036C148.157 51.3117 147.991 51.4981 147.794 51.661C147.595 51.8257 147.332 51.9071 147.005 51.9071C146.646 51.9071 146.353 51.8039 146.121 51.5958C146.009 51.4854 145.915 51.3533 145.839 51.1977C145.767 51.0384 145.731 50.8502 145.731 50.6331C145.731 50.2241 145.921 49.8947 146.302 49.6486C146.688 49.3989 147.216 49.2722 147.888 49.2722H148.293Z" fill="#257C52"/>
<path d="M152.794 52.3776V47.2236C152.971 47.0318 153.174 46.8671 153.402 46.7314C153.628 46.5921 153.88 46.5215 154.155 46.5215C154.564 46.5215 154.904 46.6518 155.176 46.9124C155.315 47.0481 155.425 47.2363 155.509 47.477C155.59 47.7195 155.632 48.0036 155.632 48.3312V52.3776H156.841V48.3312C156.841 47.8534 156.775 47.4535 156.645 47.1295C156.515 46.8074 156.341 46.5559 156.124 46.3767C155.907 46.1885 155.662 46.0636 155.393 46.0003C155.127 45.9388 154.843 45.9062 154.539 45.9062C154.142 45.9062 153.797 45.9786 153.503 46.1234C153.209 46.2681 152.971 46.4238 152.794 46.5866H152.736C152.667 46.4238 152.548 46.2935 152.374 46.1958C152.204 46.0998 151.942 46.051 151.585 46.051H150.369V46.3188H150.637C151.046 46.3188 151.307 46.4419 151.419 46.688C151.529 46.9341 151.585 47.2562 151.585 47.6507V52.3776H152.794Z" fill="#257C52"/>
<path d="M161.257 52.5224L160.975 53.2607C160.877 53.5503 160.767 53.7819 160.642 53.9556C160.521 54.133 160.383 54.2778 160.229 54.39C160.079 54.4859 159.913 54.5583 159.73 54.6071C159.545 54.6542 159.357 54.6795 159.165 54.6795V55.0704H159.578C159.81 55.0704 160.023 55.0451 160.222 54.998C160.419 54.9492 160.6 54.8569 160.765 54.7229C160.928 54.5818 161.084 54.3972 161.228 54.1656C161.373 53.9339 161.513 53.6317 161.648 53.2607L164.276 46.051H163.603L161.916 50.7127L160.374 46.992C160.239 46.6409 160.036 46.3731 159.766 46.1885C159.5 46.0003 159.162 45.9062 158.753 45.9062H157.602V46.174C157.958 46.2138 158.262 46.317 158.514 46.4853C158.769 46.65 158.964 46.9088 159.1 47.2598L161.257 52.5224Z" fill="#257C52"/>
<path d="M6.55745 29.324C7.24151 29.324 7.87489 29.4398 8.45399 29.6714C9.03308 29.8995 9.50722 30.1962 9.88001 30.5618C10.7052 31.387 11.1178 32.4782 11.1178 33.8337C11.1178 35.1855 10.6853 36.2659 9.8221 37.0766C8.99689 37.8874 7.81879 38.2927 6.28962 38.2927C5.63813 38.2927 5.03189 38.186 4.4727 37.9742C4.33155 37.9018 4.19944 37.8331 4.07457 37.7715C3.95333 37.7136 3.83027 37.6485 3.7054 37.5761C3.59863 38.2457 3.40499 38.7958 3.1263 39.2265C2.8458 39.6554 2.52911 40.0029 2.17803 40.2689C1.82515 40.5295 1.47769 40.7195 1.13566 40.8407C0.791823 40.9656 0.516753 41.0543 0.303211 41.1086C0.129482 41.1466 0.0335694 41.1393 0.0136628 41.0869C-0.0189115 41.047 0.00642415 41.0036 0.0932885 40.9566C0.480559 40.7249 0.780965 40.4643 0.998126 40.1748C1.21891 39.8852 1.39264 39.5812 1.51931 39.2627C1.62427 38.9623 1.69485 38.6637 1.72923 38.3651C1.76181 38.0701 1.77991 37.7896 1.77991 37.5254V33.4935C1.798 33.2093 1.83782 32.9433 1.89573 32.6972C1.95725 32.4511 2.03507 32.205 2.12736 31.9589C2.63407 30.8151 3.45928 30.0442 4.603 29.6425C5.1821 29.4307 5.83358 29.324 6.55745 29.324ZM6.47782 30.0334H6.28962C6.23533 30.0533 6.1557 30.0623 6.05074 30.0623C5.41735 30.1691 4.89979 30.4749 4.49442 30.9816C4.35326 31.1807 4.24106 31.3707 4.1542 31.5535C4.06734 31.7381 3.99676 31.9516 3.94428 32.1977C3.83751 32.5705 3.78503 33.0193 3.78503 33.5441C3.78503 34.0907 3.83751 34.5648 3.94428 34.9702C4.01666 35.2507 4.10715 35.5058 4.21935 35.7375C4.33517 35.9655 4.46184 36.1917 4.603 36.4179C5.11333 37.1562 5.76481 37.5254 6.55745 37.5254C7.38266 37.5254 8.03052 37.1997 8.50466 36.5482C8.75077 36.2351 8.91726 35.8895 9.00413 35.5131C9.09461 35.133 9.14166 34.6517 9.14166 34.0726C9.14166 33.0356 8.98241 32.2086 8.66391 31.5897C8.644 31.5571 8.6241 31.5173 8.606 31.4739C8.59152 31.4304 8.57343 31.3906 8.55533 31.3508C8.48656 31.2839 8.44313 31.2241 8.42503 31.1698C7.9328 30.4134 7.28313 30.0334 6.47782 30.0334Z" fill="#257C52"/>
<path d="M15.544 25.6829V25.9218C15.0373 25.9218 14.7206 26.034 14.5958 26.2547C14.4745 26.4719 14.4148 26.7578 14.4148 27.1089V37.0766H12.4314V25.6612L15.544 25.6829Z" fill="#257C52"/>
<path d="M18.9477 29.1357C19.5992 29.1357 20.1783 29.2425 20.685 29.4542C21.1954 29.6678 21.6279 29.9501 21.9808 30.3012C22.7191 31.0739 23.0883 32.0149 23.0883 33.1243V33.7251C23.1751 35.5203 24.0166 36.4179 25.6146 36.4179H26.0127V37.0766H24.536C24.1831 37.0585 23.8936 37.0042 23.6674 36.9173C23.4394 36.8305 23.1842 36.6748 22.9001 36.4468C22.6196 36.2351 22.3934 35.9691 22.2196 35.6506C21.8668 36.0903 21.4125 36.4378 20.8588 36.6929C20.3032 36.9499 19.6662 37.0766 18.9477 37.0766H15.8062V36.4179H18.6003C19.4291 36.4179 20.0643 36.103 20.5041 35.4696C20.7104 35.171 20.8624 34.8181 20.9601 34.4128C21.0614 34.0074 21.1121 33.5785 21.1121 33.1243C21.1121 32.1742 20.904 31.4196 20.4896 30.8586C20.0734 30.2939 19.4364 30.0116 18.5786 30.0116C17.9597 30.0116 17.4439 30.1401 17.0295 30.3953C16.6187 30.6468 16.3871 31.1246 16.3346 31.8285H15.9944C15.9944 31.2169 16.0106 30.7608 16.045 30.4604C16.0776 30.1618 16.2115 29.9157 16.4432 29.7221C16.6495 29.5103 16.9643 29.3601 17.3842 29.2733C17.8077 29.1828 18.3288 29.1357 18.9477 29.1357Z" fill="#257C52"/>
<path d="M30.443 25.8711C30.7217 25.8711 30.9533 25.9688 31.1379 26.1606C31.3261 26.3543 31.4202 26.5913 31.4202 26.87C31.4202 27.1361 31.3261 27.3659 31.1379 27.5577C30.9533 27.7513 30.7217 27.8473 30.443 27.8473C30.1625 27.8473 29.929 27.7513 29.7408 27.5577C29.5562 27.3659 29.4658 27.1361 29.4658 26.87C29.4658 26.5913 29.5562 26.3543 29.7408 26.1606C29.929 25.9688 30.1625 25.8711 30.443 25.8711ZM32.8969 25.8711C33.1756 25.8711 33.4127 25.9688 33.6063 26.1606C33.7981 26.3543 33.8959 26.5913 33.8959 26.87C33.8959 27.1361 33.7981 27.3659 33.6063 27.5577C33.4127 27.7513 33.1756 27.8473 32.8969 27.8473C32.6309 27.8473 32.4011 27.7513 32.2092 27.5577C32.0156 27.3659 31.9197 27.1361 31.9197 26.87C31.9197 26.5913 32.0156 26.3543 32.2092 26.1606C32.4011 25.9688 32.6309 25.8711 32.8969 25.8711ZM36.9795 29.5339H36.7189C36.3317 29.5339 36.0856 29.6406 35.9806 29.8524C35.8738 30.0659 35.8213 30.3446 35.8213 30.6921V36.4179H39.0426V37.0766H24.9561V36.4179H29.5164C28.8161 36.0849 28.2678 35.6397 27.8733 35.0787C27.4769 34.5141 27.2797 33.8626 27.2797 33.1243C27.2797 31.9281 27.7791 30.9816 28.7781 30.2867C29.7806 29.5918 31.1343 29.2443 32.839 29.2443H36.9795V29.5339ZM33.8669 36.4179V30.1926C33.3602 30.0333 32.8281 29.9736 32.2744 30.0116C31.7188 30.046 31.2139 30.1854 30.7615 30.4315C30.3018 30.6595 29.929 31.0015 29.6395 31.4594C29.3499 31.919 29.2052 32.4728 29.2052 33.1243C29.2052 34.1232 29.4802 34.9014 30.0304 35.4551C30.5841 36.0107 31.2845 36.331 32.1296 36.4179H33.8669Z" fill="#257C52"/>
<path d="M40.0944 25.8711C40.3731 25.8711 40.6047 25.9688 40.7893 26.1606C40.9721 26.3543 41.0644 26.5913 41.0644 26.87C41.0644 27.1361 40.9721 27.3659 40.7893 27.5577C40.6047 27.7513 40.3731 27.8473 40.0944 27.8473C39.8085 27.8473 39.575 27.7513 39.3923 27.5577C39.2077 27.3659 39.1172 27.1361 39.1172 26.87C39.1172 26.5913 39.2077 26.3543 39.3923 26.1606C39.575 25.9688 39.8085 25.8711 40.0944 25.8711ZM42.5411 25.8711C42.8252 25.8711 43.0641 25.9688 43.2577 26.1606C43.4496 26.3543 43.5473 26.5913 43.5473 26.87C43.5473 27.1361 43.4496 27.3659 43.2577 27.5577C43.0641 27.7513 42.8252 27.8473 42.5411 27.8473C42.2805 27.8473 42.0525 27.7513 41.8607 27.5577C41.667 27.3659 41.5711 27.1361 41.5711 26.87C41.5711 26.5913 41.667 26.3543 41.8607 26.1606C42.0525 25.9688 42.2805 25.8711 42.5411 25.8711ZM43.4676 29.6425H43.1998C42.8125 29.6425 42.5664 29.7547 42.4615 29.9754C42.3601 30.1926 42.3095 30.4785 42.3095 30.8296V36.4179H45.8419V37.0766H37.9807V36.4179H40.3261V29.3746H43.4676V29.6425Z" fill="#257C52"/>
<path d="M60.3684 29.5628H60.1295C59.7277 29.5628 59.4798 29.675 59.3839 29.8958C59.2862 30.113 59.2391 30.3989 59.2391 30.75V33.7541C59.2391 34.6661 58.9206 35.4407 58.2836 36.0777C57.6502 36.7436 56.8431 37.0766 55.8587 37.0766C55.3845 37.0766 54.9104 36.9717 54.4326 36.7581C54.2046 36.6532 53.9911 36.5174 53.7884 36.3527C53.5857 36.1844 53.45 35.9763 53.383 35.7302C53.1369 36.1555 52.8003 36.474 52.3768 36.6857C51.957 36.8938 51.5172 37.0078 51.0594 37.0259C50.5853 37.0404 50.1256 36.9572 49.6768 36.7726C49.228 36.5898 48.8625 36.3057 48.5838 35.9184C48.2653 36.2333 47.9196 36.5048 47.5486 36.7364C47.1813 36.9644 46.7343 37.0766 46.2095 37.0766H44.7834V36.4179H45.1526C45.4313 36.4179 45.7064 36.3708 45.9778 36.2731C46.2529 36.1772 46.5063 36.0234 46.7379 35.8098C46.9442 35.5981 47.1179 35.3249 47.2591 34.9919C47.4039 34.6589 47.4925 34.2463 47.5269 33.7541V29.8234H50.6396V30.0913H50.4007C49.9953 30.0913 49.7347 30.2035 49.6189 30.4243C49.5067 30.6414 49.4524 30.9273 49.4524 31.2784V34.9702C49.4524 35.3719 49.5972 35.7194 49.8867 36.0125C50.1763 36.3021 50.5237 36.4468 50.9291 36.4468C51.3345 36.4468 51.6675 36.3021 51.928 36.0125C52.1923 35.7194 52.3425 35.3719 52.3768 34.9702V29.5628H55.5184V29.8234H55.2506C54.8633 29.8234 54.6172 29.8868 54.5123 30.0116C54.4109 30.1329 54.3602 30.37 54.3602 30.721V35.1222C54.3928 35.4751 54.5448 35.7737 54.8163 36.0198C55.0914 36.2659 55.4117 36.3889 55.779 36.3889C56.1844 36.3889 56.5319 36.2496 56.8214 35.9691C57.111 35.6904 57.2557 35.3466 57.2557 34.9412V29.295H60.3684V29.5628Z" fill="#257C52"/>
<path d="M68.9348 25.9218H68.6742C68.3412 25.9218 68.1168 26.0068 68.001 26.1751C67.8852 26.3398 67.8092 26.5642 67.7766 26.8483V33.7251C67.8092 34.6227 68.0517 35.2959 68.5005 35.7447C68.9493 36.1935 69.5519 36.4179 70.3101 36.4179H70.701V37.0766H69.2243C68.8769 37.0585 68.5873 37.0042 68.3557 36.9173C68.1277 36.8305 67.8743 36.6748 67.5956 36.4468C67.3495 36.2876 67.1631 36.0921 67.0383 35.8605C66.6854 36.3202 66.2456 36.6387 65.7208 36.816C65.1942 36.9897 64.6495 37.0766 64.0849 37.0766C63.4334 37.0766 62.8706 36.968 62.3982 36.7509C61.9241 36.5301 61.5459 36.2785 61.2618 35.998V35.2814C61.5459 35.5818 61.8716 35.846 62.239 36.0777C62.61 36.3057 63.0153 36.4179 63.4551 36.4179C63.7338 36.4179 64.0089 36.3744 64.2803 36.2876C64.5554 36.1971 64.7979 36.0469 65.0114 35.8388C65.2177 35.627 65.3915 35.3538 65.5326 35.0208C65.6774 34.6878 65.7661 34.2752 65.8004 33.783V25.6612H68.9348V25.9218ZM63.3176 26.7397V32.0385C63.3176 32.2701 63.3284 32.5216 63.3538 32.7913C63.3827 33.0627 63.4497 33.3306 63.5564 33.5948C63.6614 33.8753 63.8116 34.1485 64.0052 34.4128C64.1971 34.6788 64.4703 34.9086 64.8232 35.1004C64.9101 35.1348 64.9354 35.1692 64.9028 35.2018C64.8829 35.2561 64.7961 35.2651 64.6422 35.2307C64.4432 35.1782 64.1862 35.0968 63.8677 34.9846C63.5528 34.8688 63.2397 34.6951 62.9267 34.4634C62.6082 34.2173 62.3204 33.906 62.0653 33.5296C61.8137 33.1532 61.6418 32.6574 61.5513 32.0385V28.0572C61.5513 27.7441 61.5025 27.4907 61.4065 27.2971C61.3088 27.0999 61.0844 27.0003 60.7333 27.0003H60.5017V26.7397H63.3176Z" fill="#257C52"/>
<path d="M75.6039 25.6612V25.9507C75.0972 25.9507 74.7751 26.0575 74.6412 26.2692C74.5109 26.4773 74.4457 26.7578 74.4457 27.1089V33.4138C74.4457 34.5195 74.129 35.4081 73.4975 36.0777C73.1971 36.3925 72.8496 36.6387 72.4551 36.816C72.0588 36.9897 71.6245 37.0766 71.1521 37.0766H69.6465V36.4179H70.0953C70.374 36.4179 70.6545 36.3708 70.935 36.2731C71.2191 36.1772 71.467 36.0234 71.6806 35.8098C71.8869 35.5981 72.0606 35.3248 72.2017 34.9918C72.3465 34.6589 72.4352 34.2463 72.4696 33.754V25.6612H75.6039Z" fill="#257C52"/>
<path d="M83.4944 25.8711C83.7731 25.8711 84.0102 25.9688 84.2038 26.1606C84.3957 26.3543 84.4934 26.5841 84.4934 26.8483C84.4934 27.1288 84.3957 27.3659 84.2038 27.5577C84.0102 27.7513 83.7731 27.8473 83.4944 27.8473C83.2284 27.8473 82.9986 27.7513 82.8068 27.5577C82.6131 27.3659 82.5172 27.1288 82.5172 26.8483C82.5172 26.5841 82.6131 26.3543 82.8068 26.1606C82.9986 25.9688 83.2284 25.8711 83.4944 25.8711ZM85.6299 29.5845H85.3693C84.982 29.5845 84.7359 29.6913 84.6309 29.9031C84.5241 30.1166 84.4717 30.3989 84.4717 30.75V37.0766C84.4717 37.7806 84.3287 38.3524 84.0446 38.7922C83.7641 39.2301 83.4401 39.583 83.0746 39.849C82.6873 40.1096 82.3037 40.2996 81.9236 40.4209C81.5472 40.5458 81.2541 40.6344 81.0405 40.6887C80.8668 40.7213 80.7709 40.7122 80.751 40.6598C80.7184 40.6254 80.7437 40.5819 80.8306 40.5295C81.2179 40.3014 81.5183 40.0445 81.7354 39.7549C81.9562 39.4654 82.1299 39.1613 82.2566 38.8428C82.3616 38.5424 82.4322 38.2438 82.4665 37.9452C82.4991 37.6448 82.5172 37.3662 82.5172 37.1056V29.295H85.6299V29.5845Z" fill="#143E71"/>
<path d="M90.0587 25.6612V25.9218C89.552 25.9218 89.2299 26.034 89.0959 26.2547C88.9656 26.4719 88.9005 26.7578 88.9005 27.1089V36.4179H91.2169V37.0766H86.946V25.6612H90.0587Z" fill="#143E71"/>
<path d="M92.5089 30.8803L94.7022 28.6653C95.9328 29.8958 96.9553 30.9219 97.7714 31.7417C98.5912 32.5579 99.2644 33.2184 99.791 33.7251C100.037 33.9911 100.262 34.2246 100.464 34.4273C100.667 34.6299 100.837 34.8019 100.978 34.9412L101.637 35.5999C101.796 35.7592 101.914 35.8931 101.992 35.9981C102.068 36.0994 102.169 36.2406 102.296 36.4179H104.59V37.0766H102.636C102.813 37.5146 102.911 37.938 102.925 38.3434C102.944 38.7488 102.911 39.1179 102.824 39.4509C102.752 39.7839 102.645 40.0807 102.506 40.3413C102.364 40.6055 102.252 40.819 102.165 40.9783C102.073 41.1176 102.002 41.181 101.955 41.1665C101.901 41.1665 101.892 41.1194 101.926 41.029C102.031 40.6091 102.064 40.2128 102.021 39.8418C101.977 39.4744 101.883 39.1415 101.738 38.8429C101.597 38.5425 101.431 38.2746 101.239 38.0394C101.045 37.8023 100.862 37.587 100.689 37.3951L100.37 37.0766H90.1636V36.4179H99.7404L94.3331 31.0613C94.087 30.8151 93.8481 30.6541 93.6164 30.5763C93.3884 30.5003 93.1423 30.6016 92.8781 30.8803L92.6971 31.0613L92.5089 30.8803ZM95.7012 38.604C95.9799 38.604 96.2169 38.6999 96.4106 38.8935C96.6078 39.0854 96.7074 39.3152 96.7074 39.5812C96.7074 39.8599 96.6078 40.097 96.4106 40.2906C96.2169 40.4879 95.9799 40.5874 95.7012 40.5874C95.4406 40.5874 95.2108 40.4879 95.0135 40.2906C94.8199 40.097 94.724 39.8599 94.724 39.5812C94.724 39.3152 94.8199 39.0854 95.0135 38.8935C95.2108 38.6999 95.4406 38.604 95.7012 38.604Z" fill="#143E71"/>
<path d="M107.302 25.8711C107.581 25.8711 107.818 25.9688 108.012 26.1606C108.209 26.3543 108.309 26.5913 108.309 26.87C108.309 27.1361 108.209 27.3659 108.012 27.5577C107.818 27.7513 107.581 27.8473 107.302 27.8473C107.036 27.8473 106.807 27.7513 106.615 27.5577C106.421 27.3659 106.325 27.1361 106.325 26.87C106.325 26.5913 106.421 26.3543 106.615 26.1606C106.807 25.9688 107.036 25.8711 107.302 25.8711ZM109.467 29.6425H109.199C108.797 29.6425 108.549 29.7547 108.453 29.9754C108.356 30.1926 108.309 30.4785 108.309 30.8296V33.2763C108.309 33.8608 108.207 34.3874 108.005 34.8543C107.802 35.3176 107.541 35.7067 107.223 36.0198C106.557 36.7255 105.818 37.0766 105.008 37.0766H103.531V36.4179H103.951C104.235 36.4179 104.512 36.3744 104.783 36.2876C105.058 36.1971 105.308 36.0469 105.536 35.8388C105.748 35.6271 105.923 35.3538 106.065 35.0208C106.204 34.6878 106.291 34.2752 106.325 33.783V29.3746H109.467V29.6425Z" fill="#143E71"/>
<path d="M113.74 25.6829V25.9218C113.228 25.9218 112.904 26.034 112.77 26.2547C112.64 26.4719 112.575 26.7578 112.575 27.1089V37.0766H110.628V25.6612L113.74 25.6829ZM111.836 38.604C112.401 38.604 112.779 38.6727 112.973 38.8139C113.078 38.9044 113.139 39.0021 113.154 39.1034C113.172 39.2084 113.183 39.3676 113.183 39.5812H113.024C112.989 39.3351 112.879 39.1631 112.691 39.0672C112.506 38.9695 112.274 38.9225 111.996 38.9225C111.59 38.9225 111.295 39.0256 111.112 39.2337C110.928 39.4455 110.837 39.7205 110.837 40.0589C110.837 40.41 110.928 40.6996 111.112 40.9276C111.295 41.1538 111.59 41.2678 111.996 41.2678H113.262V41.637H109.6V41.2968H110.758C110.211 41.0307 109.94 40.6181 109.94 40.0589C109.94 39.6536 110.106 39.3079 110.439 39.0238C110.772 38.7433 111.237 38.604 111.836 38.604Z" fill="#143E71"/>
<path d="M122.597 25.8711C122.875 25.8711 123.107 25.9688 123.291 26.1606C123.48 26.3543 123.574 26.5913 123.574 26.87C123.574 27.1361 123.48 27.3659 123.291 27.5577C123.107 27.7513 122.875 27.8473 122.597 27.8473C122.316 27.8473 122.083 27.7513 121.894 27.5577C121.71 27.3659 121.619 27.1361 121.619 26.87C121.619 26.5913 121.71 26.3543 121.894 26.1606C122.083 25.9688 122.316 25.8711 122.597 25.8711ZM125.05 25.8711C125.329 25.8711 125.566 25.9688 125.76 26.1606C125.952 26.3543 126.049 26.5913 126.049 26.87C126.049 27.1361 125.952 27.3659 125.76 27.5577C125.566 27.7513 125.329 27.8473 125.05 27.8473C124.784 27.8473 124.555 27.7513 124.363 27.5577C124.169 27.3659 124.073 27.1361 124.073 26.87C124.073 26.5913 124.169 26.3543 124.363 26.1606C124.555 25.9688 124.784 25.8711 125.05 25.8711ZM129.111 29.5845H128.844C128.456 29.5845 128.21 29.6967 128.105 29.9175C128.004 30.1347 127.953 30.4206 127.953 30.7717V36.4179H130.299V37.0766H123.813C122.702 37.044 121.708 36.6749 120.83 35.9691C120.41 35.618 120.067 35.209 119.802 34.7457C119.536 34.2788 119.404 33.754 119.404 33.1749C119.404 31.9987 119.906 31.0612 120.91 30.3663C121.913 29.6714 123.266 29.324 124.971 29.324H129.111V29.5845ZM125.97 36.4179V30.2722C125.463 30.113 124.931 30.0533 124.377 30.0913C123.822 30.1256 123.317 30.265 122.864 30.5111C122.405 30.7572 122.032 31.1047 121.742 31.5535C121.453 32.0023 121.308 32.5506 121.308 33.1967C121.308 34.0943 121.543 34.8525 122.017 35.4696C122.229 35.7501 122.488 35.9799 122.792 36.1573C123.1 36.331 123.44 36.4179 123.813 36.4179H125.97Z" fill="#257C52"/>
<path d="M136.812 26.0014C137.212 26.0014 137.583 26.1661 137.926 26.4936C138.274 26.8176 138.571 27.1361 138.817 27.4491L138.578 27.688L138.419 27.5288C138.332 27.4419 138.278 27.3985 138.259 27.3985C137.747 26.9786 137.262 26.8266 136.804 26.9424C136.35 27.0546 135.914 27.3116 135.494 27.717L133.75 29.4543H140.265C140.916 29.4543 141.495 29.5701 142.002 29.8017C142.512 30.0297 142.954 30.3356 143.327 30.721C144.065 31.5137 144.434 32.48 144.434 33.6238V37.0766H129.24V36.4179H142.451V33.6238C142.451 32.6936 142.237 31.9118 141.814 31.2784C141.394 30.6414 140.753 30.3229 139.895 30.3229H131.585L134.727 27.2392C135.132 26.8538 135.509 26.557 135.856 26.3489C136.207 26.1371 136.526 26.0213 136.812 26.0014Z" fill="#257C52"/>
<path d="M149.306 29.5846H149.045C148.658 29.5846 148.412 29.6913 148.307 29.9031C148.2 30.1166 148.147 30.3989 148.147 30.75V36.4179H151.361V37.0766H148.118C148.118 37.7806 147.977 38.3524 147.699 38.7922C147.418 39.2301 147.092 39.583 146.721 39.849C146.354 40.1096 145.979 40.2996 145.599 40.4209C145.223 40.5458 144.93 40.6344 144.716 40.6887C144.543 40.7213 144.447 40.7123 144.427 40.6598C144.394 40.6254 144.42 40.582 144.506 40.5295C144.894 40.3015 145.194 40.0445 145.411 39.7549C145.632 39.4654 145.806 39.1614 145.932 38.8429C146.037 38.5425 146.108 38.2439 146.142 37.9453C146.175 37.6449 146.193 37.3662 146.193 37.1056V29.295H149.306V29.5846Z" fill="#257C52"/>
<path d="M158.928 23.6271C159.212 23.6271 159.451 23.7248 159.644 23.9167C159.836 24.1103 159.934 24.3492 159.934 24.6333C159.934 24.8939 159.836 25.1219 159.644 25.3137C159.451 25.5074 159.212 25.6033 158.928 25.6033C158.667 25.6033 158.439 25.5074 158.247 25.3137C158.054 25.1219 157.958 24.8939 157.958 24.6333C157.958 24.3492 158.054 24.1103 158.247 23.9167C158.439 23.7248 158.667 23.6271 158.928 23.6271ZM157.719 25.8711C157.998 25.8711 158.229 25.9688 158.414 26.1607C158.602 26.3543 158.696 26.5914 158.696 26.8701C158.696 27.1361 158.602 27.3659 158.414 27.5577C158.229 27.7514 157.998 27.8473 157.719 27.8473C157.438 27.8473 157.205 27.7514 157.017 27.5577C156.832 27.3659 156.742 27.1361 156.742 26.8701C156.742 26.5914 156.832 26.3543 157.017 26.1607C157.205 25.9688 157.438 25.8711 157.719 25.8711ZM160.173 25.8711C160.451 25.8711 160.689 25.9688 160.882 26.1607C161.074 26.3543 161.172 26.5914 161.172 26.8701C161.172 27.1361 161.074 27.3659 160.882 27.5577C160.689 27.7514 160.451 27.8473 160.173 27.8473C159.907 27.8473 159.677 27.7514 159.485 27.5577C159.291 27.3659 159.196 27.1361 159.196 26.8701C159.196 26.5914 159.291 26.3543 159.485 26.1607C159.677 25.9688 159.907 25.8711 160.173 25.8711ZM165.891 29.5629H165.652C165.251 29.5629 165.003 29.6751 164.907 29.8958C164.809 30.113 164.762 30.3989 164.762 30.75V33.7541C164.762 34.6661 164.444 35.4407 163.807 36.0777C163.173 36.7436 162.366 37.0766 161.382 37.0766C160.907 37.0766 160.433 36.9717 159.956 36.7581C159.728 36.6532 159.514 36.5174 159.311 36.3528C159.109 36.1845 158.973 35.9763 158.906 35.7302C158.66 36.1555 158.323 36.474 157.9 36.6857C157.48 36.8939 157.04 37.0079 156.582 37.026C156.108 37.0404 155.649 36.9572 155.2 36.7726C154.751 36.5898 154.385 36.3057 154.107 35.9184C153.788 36.2333 153.443 36.5048 153.072 36.7364C152.704 36.9644 152.257 37.0766 151.732 37.0766H150.306V36.4179H150.676C150.954 36.4179 151.229 36.3709 151.501 36.2731C151.776 36.1772 152.029 36.0234 152.261 35.8099C152.467 35.5981 152.641 35.3249 152.782 34.9919C152.927 34.6589 153.015 34.2463 153.05 33.7541V29.8234H156.163V30.0913H155.924C155.518 30.0913 155.258 30.2035 155.142 30.4243C155.03 30.6414 154.975 30.9274 154.975 31.2784V34.9702C154.975 35.3719 155.12 35.7194 155.41 36.0125C155.699 36.3021 156.047 36.4469 156.452 36.4469C156.857 36.4469 157.19 36.3021 157.451 36.0125C157.715 35.7194 157.865 35.3719 157.9 34.9702V29.5629H161.041V29.8234H160.774C160.386 29.8234 160.14 29.8868 160.035 30.0117C159.934 30.1329 159.883 30.37 159.883 30.721V35.1222C159.916 35.4751 160.068 35.7737 160.339 36.0198C160.614 36.2659 160.935 36.389 161.302 36.389C161.707 36.389 162.055 36.2496 162.344 35.9691C162.634 35.6904 162.779 35.3466 162.779 34.9412V29.295H165.891V29.5629Z" fill="#257C52"/>
</g>
<defs>
<clipPath id="clip0_936_1198">
<rect width="246" height="70.1864" fill="white"/>
</clipPath>
<clipPath id="clip1_936_1198">
<rect width="58.3729" height="70.1864" fill="white" transform="translate(187.627)"/>
</clipPath>
</defs>
</svg>
