<svg width="246" height="71" viewBox="0 0 246 71" fill="none" xmlns="http://www.w3.org/2000/svg">
<g clip-path="url(#clip0_7_5616)">
<g clip-path="url(#clip1_7_5616)">
<path d="M234.321 21.6303L233.725 22.8693H243.811L238.693 13.462L238.161 14.7268C238.161 14.7268 229.937 10.8696 222.571 10.4417L221.521 11.3467L222.571 18.013C222.571 18.013 231.437 19.6308 234.32 21.6303H234.321Z" fill="#0E4A79"/>
<path d="M209.414 20.2743C209.414 20.2743 206.073 21.7736 204.802 23.9176H194.825C194.825 23.9176 199.066 14.3454 209.414 11.8225C209.414 11.8225 209.032 17.6083 209.414 20.2757V20.2743Z" fill="#0E4A79"/>
<path d="M239.468 35.2043C238.044 34.0785 236.573 33.228 235.245 32.5942C232.682 31.3703 230.674 30.9668 230.674 30.9668V29.1541L221.52 32.1076L228.505 38.9879L229.151 37.0116C240.954 39.7348 241.395 50.7354 236.352 57.4113L235.742 58.1636C235.106 58.901 234.399 59.5716 233.631 60.1549C227.588 64.7577 219.751 63.7437 216.753 63.1235C215.965 62.9599 215.513 62.8209 215.513 62.8209L210.747 64.4388L206.913 65.7704L206.359 65.9653C219.9 74.8219 243.261 69.4872 245.741 52.3478C246.997 43.6561 243.441 38.3514 239.468 35.2043Z" fill="#0E4A79"/>
<path d="M236.353 57.4111C236.158 57.6674 235.954 57.9236 235.743 58.1635C232.677 56.9041 228.738 57.3498 223.432 60.0008C221.49 60.9685 219.209 62.1093 216.754 63.1234C213.637 64.4127 210.239 65.499 206.914 65.7703C203.598 66.0524 200.358 65.5195 197.54 63.5745C197.54 63.5745 192.964 60.2161 194.824 55.7169C194.824 55.7169 185.742 54.2177 191.677 44.9304C191.677 44.9304 187.115 43.686 187.675 38.5012C188.106 34.4981 191.247 33.5004 191.247 33.5004C191.247 33.5004 185.563 27.0876 192.636 23.7797C197.636 21.4408 209.416 23.2877 209.416 23.2877C209.416 23.2877 205.081 2.94934 216.868 0.252008C217.678 0.0625546 218.514 0.0012207 219.344 0.0012207H222.86C222.86 0.0012207 221.769 18.3796 225.648 23.9174C229.016 28.7191 238.041 27.1422 239.471 35.2055C238.047 34.0797 236.576 33.2292 235.248 32.5954C235.248 31.2624 233.613 29.8667 231.835 29.0381C228.616 27.5388 222.693 26.3612 221.523 17.2183C220.359 8.07549 220.785 2.57179 220.785 2.57179C220.785 2.57179 215.624 0.821732 212.554 4.04108C206.783 10.0913 210.709 24.6452 210.709 24.6452C210.709 24.6452 197.53 22.8706 193.995 26.3912C192.64 27.7405 191.643 30.0617 193.826 34.0034C193.826 34.0034 190.679 36.3586 191.319 40.2894C191.965 44.2162 194.466 45.004 194.466 45.004C194.466 45.004 191.606 48.0039 192.467 51.643C193.323 55.2876 196.9 54.8583 196.9 54.8583C196.9 54.8583 194.579 62.2197 202.621 63.6427C213.922 65.6449 222.897 59.4283 225.635 58.1921C229.031 56.656 232.893 56.0849 236.355 57.4138L236.353 57.4111Z" fill="#279552"/>
</g>
<path d="M1.80078 43.4812V50.7561C1.80078 51.0999 1.81888 51.375 1.85869 51.5813C1.90212 51.784 1.96908 51.9469 2.06137 52.0663C2.15729 52.193 2.28035 52.2762 2.43055 52.3197C2.58437 52.3595 2.77801 52.3776 3.00964 52.3776H4.21851V52.1097H3.95791C3.55617 52.1097 3.29919 51.9867 3.18337 51.7406C3.06755 51.4944 3.00964 51.1669 3.00964 50.7561V43.4812H1.80078Z" fill="#143E71"/>
<path d="M6.82926 52.3776V47.2237C7.00661 47.0319 7.20929 46.8672 7.43731 46.7315C7.66352 46.5921 7.91507 46.5215 8.19014 46.5215C8.59912 46.5215 8.93934 46.6518 9.21079 46.9124C9.35014 47.0482 9.46053 47.2364 9.54377 47.477C9.62521 47.7195 9.66683 48.0037 9.66683 48.3312V52.3776H10.8757V48.3312C10.8757 47.8535 10.8105 47.4535 10.6803 47.1296C10.55 46.8075 10.3762 46.5559 10.1591 46.3768C9.9419 46.1886 9.6976 46.0637 9.42796 46.0004C9.16193 45.9388 8.87781 45.9062 8.57379 45.9062C8.17747 45.9062 7.83182 45.9786 7.53865 46.1234C7.24368 46.2682 7.00661 46.4238 6.82926 46.5867H6.77135C6.70258 46.4238 6.58315 46.2935 6.40942 46.1958C6.23931 46.0999 5.9769 46.051 5.6204 46.051H4.4043V46.3189H4.67213C5.08112 46.3189 5.34171 46.4419 5.45391 46.688C5.5643 46.9341 5.6204 47.2563 5.6204 47.6508V52.3776H6.82926Z" fill="#143E71"/>
<path d="M12.5415 47.9403C12.5415 48.3656 12.6429 48.7293 12.8455 49.0334C13.0518 49.3338 13.2871 49.5509 13.5477 49.6849C13.45 49.7536 13.3468 49.8423 13.2364 49.9527C13.1297 50.0649 13.0772 50.2205 13.0772 50.4232C13.0772 50.6313 13.1297 50.7996 13.2364 50.9299C13.3468 51.0602 13.4717 51.1597 13.6128 51.2267C13.2111 51.3624 12.8636 51.5814 12.5705 51.8854C12.2755 52.1858 12.1289 52.5532 12.1289 52.9929C12.1289 53.3784 12.2085 53.6987 12.3678 53.9557C12.527 54.2163 12.7333 54.4298 12.9903 54.5999C13.2654 54.7737 13.5766 54.8931 13.9241 54.9619C14.2752 55.0343 14.6643 55.0704 15.0895 55.0704C15.5275 55.0704 15.9238 55.0343 16.2767 54.9619C16.6332 54.8931 16.9426 54.7737 17.2032 54.5999C17.4783 54.4298 17.69 54.2163 17.8402 53.9557C17.9886 53.6987 18.0646 53.3784 18.0646 52.9929C18.0646 52.6111 17.985 52.2908 17.8258 52.0302C17.6701 51.7696 17.4566 51.5506 17.1815 51.3715C16.635 51.0584 15.9383 50.901 15.0895 50.901C14.1431 50.901 13.6707 50.7417 13.6707 50.4232C13.6707 50.1101 14.1431 49.9527 15.0895 49.9527C15.446 49.9527 15.7845 49.9201 16.103 49.8513C16.4251 49.7844 16.6965 49.6758 16.9137 49.5256C17.1489 49.3718 17.3335 49.1637 17.4638 48.9031C17.5941 48.6425 17.6593 48.3222 17.6593 47.9403C17.6593 47.5838 17.5688 47.2798 17.3914 47.0282C17.2123 46.7731 16.9861 46.5776 16.711 46.4419V46.3768L17.5941 46.2537V45.9062H15.0895C14.7457 45.9062 14.4163 45.9406 14.0978 46.0076C13.7829 46.0764 13.5115 46.1867 13.2799 46.3406C13.0627 46.4908 12.8835 46.6953 12.7442 46.9559C12.6085 47.2165 12.5415 47.5458 12.5415 47.9403ZM16.4432 47.9403C16.4432 48.2299 16.4088 48.4724 16.3418 48.6642C16.2731 48.8524 16.1771 49.0098 16.0523 49.1347C15.8206 49.3663 15.4985 49.4822 15.0895 49.4822C14.6932 49.4822 14.3765 49.3663 14.1413 49.1347C14.0345 49.0098 13.9422 48.8524 13.8662 48.6642C13.7884 48.4724 13.7504 48.2299 13.7504 47.9403C13.7504 47.6417 13.7884 47.3938 13.8662 47.1947C13.9422 46.9921 14.0345 46.831 14.1413 46.7097C14.3765 46.489 14.6932 46.3768 15.0895 46.3768C15.4696 46.3768 15.7917 46.4998 16.0523 46.7459C16.3129 46.9921 16.4432 47.3902 16.4432 47.9403ZM14.496 51.3715L15.2343 51.4294C16.3147 51.585 16.8558 52.1062 16.8558 52.9929C16.8558 53.5286 16.6911 53.9195 16.3635 54.1656C16.0342 54.4117 15.6107 54.5348 15.0895 54.5348C14.5828 54.5348 14.1648 54.4117 13.8372 54.1656C13.5079 53.9195 13.345 53.5286 13.345 52.9929C13.345 52.5532 13.45 52.2093 13.6635 51.9578C13.8752 51.7026 14.1521 51.5072 14.496 51.3715Z" fill="#143E71"/>
<path d="M24.0057 52.3776V48.7438C24.0057 48.1412 23.9406 47.6508 23.8103 47.2744C23.68 46.898 23.5063 46.6066 23.2891 46.3985C23.0665 46.2067 22.8114 46.0764 22.5218 46.0076C22.2359 45.9406 21.9445 45.9062 21.6459 45.9062C21.4233 45.9062 21.2152 45.9189 21.0234 45.9424C20.8352 45.9624 20.6434 45.9841 20.4515 46.0076C20.0407 46.1053 19.7602 46.2284 19.6118 46.3768C19.4472 46.5414 19.3513 46.7278 19.3223 46.9341C19.2933 47.1423 19.2789 47.3612 19.2789 47.5929H19.8942C19.9901 47.1549 20.1638 46.8527 20.4153 46.688C20.6705 46.5252 20.9908 46.4419 21.3781 46.4419C21.8016 46.4419 22.1382 46.5849 22.3843 46.869C22.5037 47.0482 22.6014 47.2888 22.6738 47.5929C22.7498 47.8933 22.7896 48.2769 22.7896 48.7438H22.3843C21.9156 48.7438 21.4758 48.771 21.0668 48.8234C20.656 48.8777 20.2941 48.9809 19.981 49.1347C19.6625 49.2704 19.411 49.4605 19.2282 49.7066C19.0436 49.9527 18.9531 50.2621 18.9531 50.6331C18.9531 51.0005 19.0201 51.3045 19.1558 51.5452C19.2952 51.7877 19.4598 51.9831 19.648 52.1315C19.8399 52.2673 20.0498 52.3668 20.2778 52.4283C20.504 52.4898 20.7121 52.5224 20.9003 52.5224C21.4215 52.5224 21.8305 52.4392 22.1309 52.2763C22.4349 52.1134 22.6539 51.9415 22.7896 51.7624H22.8548L23.3253 52.3776H24.0057ZM22.7896 49.2722V51.1036C22.6539 51.3118 22.4874 51.4981 22.2902 51.661C22.0911 51.8257 21.8287 51.9071 21.5011 51.9071C21.1428 51.9071 20.8497 51.804 20.618 51.5959C20.5058 51.4855 20.4117 51.3534 20.3357 51.1977C20.2633 51.0385 20.2271 50.8503 20.2271 50.6331C20.2271 50.2241 20.4172 49.8948 20.799 49.6487C21.1845 49.3989 21.7129 49.2722 22.3843 49.2722H22.7896Z" fill="#143E71"/>
<path d="M30.7645 46.051H26.6529C26.2132 46.051 25.9073 46.1596 25.7336 46.3768C25.6359 46.4745 25.5743 46.5867 25.5454 46.717C25.5164 46.8473 25.502 46.9812 25.502 47.1151V47.7956H25.7698C25.7698 47.4155 25.9073 47.1187 26.1824 46.9052C26.4575 46.6935 26.8809 46.5867 27.4564 46.5867H28.9982L25.502 52.1315V52.3777H30.7645V51.842H27.1307L30.7645 46.051Z" fill="#143E71"/>
<path d="M38.885 48.266L40.2386 50.5462C40.6476 51.2755 41.0457 51.7894 41.433 52.088C41.775 52.3776 42.1858 52.5223 42.6636 52.5223C42.8409 52.5223 43.0002 52.5042 43.1413 52.4717C43.2861 52.4373 43.4019 52.4065 43.4888 52.3776V52.1097C43.1305 52.0717 42.83 51.9487 42.5839 51.7406C42.4428 51.6157 42.2944 51.4619 42.1351 51.2773C41.9795 51.0945 41.8202 50.8502 41.6574 50.5462L40.2386 48.2081C40.4702 48.1411 40.7109 48.0597 40.9625 47.962C41.2176 47.866 41.4565 47.7285 41.6791 47.5494C41.8963 47.372 42.07 47.1494 42.2003 46.8834C42.3306 46.6137 42.3957 46.288 42.3957 45.9062C42.3957 45.3705 42.2745 44.9434 42.0338 44.6249C41.7967 44.3028 41.4999 44.0585 41.1434 43.8938C40.7996 43.7165 40.434 43.6024 40.0431 43.5536C39.6523 43.5065 39.3138 43.4812 39.0297 43.4812H35.5117V43.749H35.8013C36.1958 43.749 36.4527 43.8721 36.5686 44.1182C36.688 44.3643 36.7495 44.6937 36.7495 45.1027V52.3776H37.9584V48.266H38.885ZM38.9646 47.7955C38.6063 47.7955 38.2715 47.7484 37.9584 47.6507V44.0965C38.2715 44.0006 38.6063 43.9517 38.9646 43.9517C39.1564 43.9517 39.3699 43.9915 39.6016 44.0675C39.8332 44.1454 40.0594 44.2594 40.282 44.4078C40.4992 44.558 40.6802 44.7552 40.8249 45.0013C40.9697 45.2474 41.0421 45.5497 41.0421 45.9062C41.0421 46.25 40.9697 46.5359 40.8249 46.7676C40.6802 46.9992 40.4992 47.1928 40.282 47.3467C40.0594 47.4969 39.8332 47.6109 39.6016 47.6869C39.3699 47.7593 39.1564 47.7955 38.9646 47.7955Z" fill="#257C52"/>
<path d="M49.3004 49.417L49.3221 48.8669C49.3221 47.9222 49.1013 47.1929 48.6634 46.6808C48.2236 46.165 47.545 45.9062 46.6293 45.9062C46.204 45.9062 45.8222 45.9931 45.4856 46.1668C45.1526 46.337 44.8703 46.5704 44.6387 46.869C44.4016 47.173 44.2261 47.5241 44.1103 47.9186C43.9944 48.3149 43.9365 48.7474 43.9365 49.2143C43.9365 49.6686 43.9944 50.0938 44.1103 50.4883C44.2261 50.8847 44.4016 51.2339 44.6387 51.538C44.8703 51.8384 45.1617 52.0772 45.5146 52.2546C45.8711 52.4319 46.2837 52.5224 46.7524 52.5224C47.2736 52.5224 47.7314 52.4138 48.1277 52.1967C48.5222 51.9759 48.8733 51.6103 49.1773 51.1036L48.9095 50.901C48.6779 51.2448 48.4137 51.5072 48.1205 51.69C47.8255 51.8746 47.4582 51.965 47.0202 51.965C46.7307 51.965 46.4737 51.8999 46.2529 51.7696C46.0357 51.6393 45.8439 51.4656 45.6811 51.2484C45.3662 50.7815 45.2105 50.1698 45.2105 49.417H49.3004ZM48.0481 48.8669H45.2105C45.2105 48.1539 45.3481 47.5766 45.6231 47.1368C45.7426 46.9197 45.8855 46.7514 46.0502 46.6301C46.2185 46.5053 46.4122 46.4419 46.6293 46.4419C47.1071 46.4419 47.4618 46.6518 47.6934 47.0717C47.9287 47.4879 48.0481 48.0851 48.0481 48.8669Z" fill="#257C52"/>
<path d="M53.4704 45.9062C52.9637 45.9062 52.5239 45.9931 52.153 46.1668C51.7856 46.337 51.4761 46.5704 51.2264 46.869C50.9803 47.173 50.7993 47.5241 50.6835 47.9186C50.5677 48.3149 50.5098 48.7474 50.5098 49.2143C50.5098 49.6686 50.5677 50.0938 50.6835 50.4883C50.7993 50.8847 50.9803 51.2339 51.2264 51.538C51.4761 51.8384 51.7856 52.0772 52.153 52.2546C52.5239 52.4319 52.9637 52.5224 53.4704 52.5224C54.0006 52.5224 54.4711 52.4138 54.8819 52.1967C55.2964 51.9759 55.6529 51.6103 55.9533 51.1036L55.6854 50.901C55.4538 51.2448 55.1896 51.5072 54.8964 51.69C54.6014 51.8746 54.216 51.965 53.7382 51.965C53.3944 51.965 53.103 51.8963 52.8623 51.7551C52.6198 51.6103 52.4172 51.4149 52.2543 51.1688C52.0896 50.9191 51.9684 50.6259 51.8924 50.2929C51.82 49.9563 51.7838 49.5962 51.7838 49.2143C51.7838 48.8198 51.82 48.4543 51.8924 48.1213C51.9684 47.7847 52.0896 47.4915 52.2543 47.2454C52.4172 46.9957 52.6198 46.8002 52.8623 46.6591C53.103 46.5143 53.3944 46.4419 53.7382 46.4419C54.216 46.4419 54.6177 46.5831 54.9471 46.8618C55.2746 47.1423 55.4538 47.5639 55.4828 48.1285H55.7506C55.7506 47.8788 55.7506 47.6616 55.7506 47.477C55.7506 47.2943 55.7361 47.1332 55.7072 46.9921C55.6673 46.7369 55.5714 46.5324 55.4176 46.3768C55.2529 46.2139 55.0068 46.0945 54.6793 46.0221C54.3499 45.9461 53.9481 45.9062 53.4704 45.9062Z" fill="#257C52"/>
<path d="M58.7091 52.3776V47.3829C58.9933 46.9341 59.4185 46.7097 59.9831 46.7097C60.4899 46.7097 60.8446 46.8455 61.0472 47.1151L61.6046 46.7097C61.5214 46.5704 61.4472 46.4546 61.3802 46.3623C61.3114 46.2664 61.23 46.1813 61.1341 46.1089C61.0364 46.042 60.9097 45.9913 60.7504 45.9569C60.5948 45.9243 60.4482 45.9062 60.3089 45.9062C59.9126 45.9062 59.5796 45.9895 59.3099 46.1524C59.0439 46.317 58.843 46.4817 58.7091 46.6446H58.6295C58.5571 46.4419 58.4341 46.2935 58.2603 46.1958C58.0902 46.0999 57.8296 46.051 57.4786 46.051H56.4072V46.3189H56.552C56.9465 46.3189 57.1999 46.4419 57.3121 46.688C57.4225 46.9341 57.4786 47.2563 57.4786 47.6508V52.3776H58.7091Z" fill="#257C52"/>
<path d="M66.7787 46.051V51.1833C66.5996 51.3769 66.3969 51.5452 66.1707 51.69C65.9481 51.8347 65.7002 51.9071 65.4251 51.9071C65.2459 51.9071 65.0668 51.8746 64.8894 51.8058C64.7103 51.7334 64.5528 51.6303 64.4189 51.4945C64.2832 51.3606 64.1692 51.176 64.0787 50.9444C63.9918 50.7091 63.9484 50.4196 63.9484 50.0757V47.6508C63.9484 46.9957 63.8651 46.5577 63.7023 46.3406C63.6046 46.2157 63.4779 46.1361 63.3186 46.1017C63.1594 46.0691 62.9639 46.051 62.7323 46.051H61.6465V46.3189H61.7913C62.1858 46.3189 62.4427 46.4419 62.5586 46.688C62.6744 46.9341 62.7323 47.2563 62.7323 47.6508V50.0757C62.7323 50.568 62.7974 50.9697 62.9277 51.2774C63.058 51.5868 63.2336 51.8384 63.4562 52.0302C63.6733 52.2093 63.914 52.3342 64.18 52.4066C64.4497 52.4826 64.7266 52.5224 65.0125 52.5224C65.4215 52.5224 65.7744 52.45 66.0693 52.3053C66.3625 52.1605 66.5996 52.0067 66.7787 51.842H66.8439L67.3144 52.3776H67.9948V46.051H66.7787Z" fill="#257C52"/>
<path d="M71.2604 44.6322C71.2604 44.4005 71.188 44.2015 71.0432 44.0313C70.8984 43.8576 70.7175 43.7708 70.5003 43.7708C70.0895 43.7708 69.885 43.9698 69.885 44.3643C69.885 44.596 69.9592 44.7986 70.1094 44.9724C70.2578 45.1425 70.437 45.2257 70.6451 45.2257C71.0541 45.2257 71.2604 45.0285 71.2604 44.6322ZM71.34 52.3776V47.6507C71.34 46.9956 71.2568 46.5577 71.0939 46.3405C70.9962 46.2156 70.8695 46.136 70.7102 46.1016C70.5546 46.069 70.3628 46.0509 70.1311 46.0509H68.915V46.3188H69.1829C69.5919 46.3188 69.8525 46.4418 69.9647 46.6879C70.075 46.9341 70.1311 47.2562 70.1311 47.6507V52.3776H71.34Z" fill="#257C52"/>
<path d="M73.4967 46.5866V50.7561C73.4967 51.375 73.6451 51.8238 73.9455 52.1025C74.2495 52.3812 74.635 52.5223 75.1037 52.5223C75.3353 52.5223 75.5416 52.5006 75.7262 52.4572C75.9144 52.4174 76.0755 52.3703 76.2112 52.3124C76.3451 52.2599 76.4573 52.2038 76.5442 52.1459C76.6347 52.0844 76.7143 52.0228 76.7831 51.9649L76.66 51.6971C76.5243 51.7695 76.3813 51.8328 76.2329 51.8853C76.0827 51.9396 75.8891 51.9649 75.6538 51.9649C75.0259 51.9649 74.7128 51.5632 74.7128 50.7561V46.5866H76.3125V46.0509H74.7128V44.0168H74.1554L73.4967 44.8348V46.0509H72.5557V46.5866H73.4967Z" fill="#257C52"/>
<path d="M79.2082 46.5867H79.1503C79.0815 46.4238 78.9621 46.2935 78.7883 46.1958C78.6182 46.0999 78.3558 46.051 77.9993 46.051H76.7832V46.3189H77.051C77.46 46.3189 77.7206 46.4419 77.8328 46.688C77.9432 46.9341 77.9993 47.2563 77.9993 47.6508V52.3776H79.2082V47.2237C79.3855 47.0319 79.5882 46.8672 79.8162 46.7315C80.0424 46.5921 80.294 46.5215 80.569 46.5215C80.9056 46.5215 81.1662 46.6573 81.3508 46.9269C81.539 47.1929 81.6331 47.6616 81.6331 48.3312V52.3776H82.8492V48.3312C82.8492 48.1973 82.8438 48.0308 82.8348 47.8317C82.8293 47.6291 82.813 47.4807 82.7841 47.3829C82.851 47.278 82.9361 47.1766 83.0374 47.0789C83.1424 46.983 83.2564 46.8871 83.3777 46.7894C83.517 46.7224 83.6545 46.6627 83.7903 46.6084C83.9242 46.5505 84.0617 46.5215 84.2029 46.5215C84.5449 46.5215 84.8073 46.6573 84.9919 46.9269C85.1747 47.1929 85.267 47.6616 85.267 48.3312V52.3776H86.4831V48.3312C86.4831 47.8535 86.4288 47.4535 86.3238 47.1296C86.2225 46.8075 86.0886 46.5559 85.9257 46.3768C85.7465 46.1886 85.5438 46.0637 85.3176 46.0004C85.095 45.9388 84.8616 45.9062 84.6155 45.9062C84.2282 45.9062 83.85 45.9895 83.479 46.1524C83.1116 46.317 82.813 46.5505 82.5814 46.8545C82.4167 46.4691 82.1923 46.2157 81.9082 46.0945C81.6277 45.9696 81.3092 45.9062 80.9527 45.9062C80.5564 45.9062 80.2107 45.9786 79.9176 46.1234C79.6226 46.2682 79.3855 46.4238 79.2082 46.5867Z" fill="#257C52"/>
<path d="M93.3854 49.417L93.4071 48.8669C93.4071 47.9222 93.1863 47.1929 92.7484 46.6808C92.3086 46.165 91.63 45.9062 90.7143 45.9062C90.289 45.9062 89.9072 45.9931 89.5706 46.1668C89.2376 46.337 88.9553 46.5704 88.7236 46.869C88.4866 47.173 88.311 47.5241 88.1952 47.9186C88.0794 48.3149 88.0215 48.7474 88.0215 49.2143C88.0215 49.6686 88.0794 50.0938 88.1952 50.4883C88.311 50.8847 88.4866 51.2339 88.7236 51.538C88.9553 51.8384 89.2466 52.0772 89.5995 52.2546C89.956 52.4319 90.3686 52.5224 90.8373 52.5224C91.3585 52.5224 91.8164 52.4138 92.2127 52.1967C92.6072 51.9759 92.9583 51.6103 93.2623 51.1036L92.9945 50.901C92.7628 51.2448 92.4986 51.5072 92.2055 51.69C91.9105 51.8746 91.5431 51.965 91.1052 51.965C90.8156 51.965 90.5586 51.8999 90.3379 51.7696C90.1207 51.6393 89.9289 51.4656 89.766 51.2484C89.4511 50.7815 89.2955 50.1698 89.2955 49.417H93.3854ZM92.1331 48.8669H89.2955C89.2955 48.1539 89.433 47.5766 89.7081 47.1368C89.8275 46.9197 89.9705 46.7514 90.1352 46.6301C90.3035 46.5053 90.4971 46.4419 90.7143 46.4419C91.192 46.4419 91.5467 46.6518 91.7784 47.0717C92.0136 47.4879 92.1331 48.0851 92.1331 48.8669Z" fill="#257C52"/>
<path d="M96.3625 52.3776V47.2237C96.5398 47.0319 96.7425 46.8672 96.9705 46.7315C97.1967 46.5921 97.4483 46.5215 97.7233 46.5215C98.1323 46.5215 98.4725 46.6518 98.744 46.9124C98.8833 47.0482 98.9937 47.2364 99.077 47.477C99.1584 47.7195 99.2 48.0037 99.2 48.3312V52.3776H100.409V48.3312C100.409 47.8535 100.344 47.4535 100.213 47.1296C100.083 46.8075 99.9094 46.5559 99.6923 46.3768C99.4751 46.1886 99.2308 46.0637 98.9612 46.0004C98.6951 45.9388 98.411 45.9062 98.107 45.9062C97.7107 45.9062 97.365 45.9786 97.0719 46.1234C96.7769 46.2682 96.5398 46.4238 96.3625 46.5867H96.3046C96.2358 46.4238 96.1163 46.2935 95.9426 46.1958C95.7725 46.0999 95.5101 46.051 95.1536 46.051H93.9375V46.3189H94.2053C94.6143 46.3189 94.8749 46.4419 94.9871 46.688C95.0975 46.9341 95.1536 47.2563 95.1536 47.6508V52.3776H96.3625Z" fill="#257C52"/>
<path d="M102.545 46.5866V50.7561C102.545 51.375 102.693 51.8238 102.993 52.1025C103.297 52.3812 103.683 52.5223 104.152 52.5223C104.383 52.5223 104.589 52.5006 104.774 52.4572C104.962 52.4174 105.123 52.3703 105.259 52.3124C105.393 52.2599 105.505 52.2038 105.592 52.1459C105.683 52.0844 105.762 52.0228 105.831 51.9649L105.708 51.6971C105.572 51.7695 105.429 51.8328 105.281 51.8853C105.131 51.9396 104.937 51.9649 104.702 51.9649C104.074 51.9649 103.761 51.5632 103.761 50.7561V46.5866H105.36V46.0509H103.761V44.0168H103.203L102.545 44.8348V46.0509H101.604V46.5866H102.545Z" fill="#257C52"/>
<path d="M117.91 46.3188H118.2C118.2 45.9098 118.185 45.5225 118.156 45.1606C118.131 44.795 118.029 44.5019 117.852 44.2847C117.606 43.9952 117.215 43.7454 116.679 43.5319C116.147 43.3201 115.503 43.2134 114.747 43.2134C114.171 43.2134 113.632 43.3419 113.125 43.597C112.618 43.8486 112.181 44.1942 111.815 44.6322C111.428 45.0574 111.124 45.5641 110.903 46.1523C110.686 46.7422 110.577 47.3793 110.577 48.0633C110.577 49.3663 110.954 50.4485 111.706 51.3062C112.063 51.7225 112.503 52.05 113.024 52.2907C113.545 52.526 114.119 52.6454 114.747 52.6454C115.161 52.6454 115.545 52.611 115.898 52.5441C116.254 52.4753 116.585 52.354 116.889 52.1749C117.188 51.9831 117.47 51.7478 117.736 51.4727C118.006 51.1977 118.25 50.8484 118.467 50.4231L118.2 50.2204C117.818 50.8394 117.385 51.3099 116.904 51.632C116.426 51.9505 115.843 52.1097 115.159 52.1097C114.584 52.1097 114.095 51.9939 113.69 51.7623C113.288 51.5306 112.951 51.223 112.676 50.8357C112.416 50.4557 112.222 50.025 112.097 49.5472C111.976 49.0659 111.916 48.57 111.916 48.0633C111.916 47.258 112 46.583 112.17 46.0365C112.343 45.4863 112.579 45.0412 112.879 44.6973C113.183 44.3553 113.527 44.111 113.914 43.9662C114.305 43.8214 114.719 43.749 115.159 43.749C115.912 43.749 116.517 43.9553 116.976 44.3643C117.434 44.7751 117.745 45.4266 117.91 46.3188Z" fill="#257C52"/>
<path d="M119.556 49.2143C119.556 50.1608 119.816 50.9353 120.337 51.538C120.584 51.8384 120.888 52.0772 121.25 52.2546C121.611 52.4319 122.033 52.5224 122.516 52.5224C122.98 52.5224 123.396 52.4319 123.769 52.2546C124.14 52.0772 124.453 51.8384 124.71 51.538C124.97 51.2339 125.16 50.8847 125.281 50.4883C125.406 50.0938 125.47 49.6686 125.47 49.2143C125.47 48.7474 125.406 48.3149 125.281 47.9186C125.16 47.5241 124.97 47.173 124.71 46.869C124.453 46.5704 124.14 46.337 123.769 46.1668C123.396 45.9931 122.98 45.9062 122.516 45.9062C122.033 45.9062 121.611 45.9931 121.25 46.1668C120.888 46.337 120.584 46.5704 120.337 46.869C119.816 47.4734 119.556 48.2552 119.556 49.2143ZM124.203 49.2143C124.203 49.9961 124.051 50.6476 123.747 51.1688C123.597 51.4149 123.416 51.6103 123.204 51.7551C122.99 51.8963 122.762 51.965 122.516 51.965C122.27 51.965 122.042 51.8963 121.836 51.7551C121.633 51.6103 121.454 51.4149 121.3 51.1688C120.985 50.6621 120.83 50.0106 120.83 49.2143C120.83 48.409 120.985 47.7521 121.3 47.2454C121.454 46.9957 121.633 46.8002 121.836 46.6591C122.042 46.5143 122.27 46.4419 122.516 46.4419C122.762 46.4419 122.99 46.5143 123.204 46.6591C123.416 46.8002 123.597 46.9957 123.747 47.2454C124.051 47.763 124.203 48.4181 124.203 49.2143Z" fill="#257C52"/>
<path d="M128.471 46.5867H128.413C128.344 46.4238 128.225 46.2935 128.051 46.1958C127.881 46.0999 127.619 46.051 127.262 46.051H126.046V46.3189H126.314C126.723 46.3189 126.983 46.4419 127.096 46.688C127.206 46.9341 127.262 47.2563 127.262 47.6508V52.3776H128.471V47.2237C128.648 47.0319 128.851 46.8672 129.079 46.7315C129.305 46.5921 129.557 46.5215 129.832 46.5215C130.168 46.5215 130.429 46.6573 130.614 46.9269C130.802 47.1929 130.896 47.6616 130.896 48.3312V52.3776H132.112V48.3312C132.112 48.1973 132.107 48.0308 132.097 47.8317C132.092 47.6291 132.076 47.4807 132.047 47.3829C132.114 47.278 132.199 47.1766 132.3 47.0789C132.405 46.983 132.519 46.8871 132.64 46.7894C132.78 46.7224 132.917 46.6627 133.053 46.6084C133.187 46.5505 133.324 46.5215 133.466 46.5215C133.808 46.5215 134.07 46.6573 134.255 46.9269C134.437 47.1929 134.53 47.6616 134.53 48.3312V52.3776H135.746V48.3312C135.746 47.8535 135.691 47.4535 135.587 47.1296C135.485 46.8075 135.351 46.5559 135.188 46.3768C135.009 46.1886 134.807 46.0637 134.58 46.0004C134.358 45.9388 134.124 45.9062 133.878 45.9062C133.491 45.9062 133.113 45.9895 132.742 46.1524C132.374 46.317 132.076 46.5505 131.844 46.8545C131.679 46.4691 131.455 46.2157 131.171 46.0945C130.89 45.9696 130.572 45.9062 130.215 45.9062C129.819 45.9062 129.473 45.9786 129.18 46.1234C128.885 46.2682 128.648 46.4238 128.471 46.5867Z" fill="#257C52"/>
<path d="M139.051 54.9474V52.1098C139.257 52.2075 139.494 52.298 139.76 52.3849C140.025 52.4754 140.35 52.5224 140.738 52.5224C141.175 52.5224 141.556 52.4319 141.874 52.2546C142.196 52.0772 142.469 51.8384 142.692 51.538C142.895 51.2339 143.047 50.8847 143.148 50.4883C143.253 50.0938 143.307 49.6686 143.307 49.2143C143.307 48.2407 143.101 47.459 142.692 46.869C142.498 46.5704 142.247 46.337 141.939 46.1668C141.63 45.9931 141.277 45.9062 140.882 45.9062C140.376 45.9062 139.977 45.9895 139.688 46.1524C139.402 46.317 139.19 46.4817 139.051 46.6446H138.993C138.924 46.4419 138.805 46.2935 138.631 46.1958C138.461 46.0999 138.199 46.051 137.842 46.051H136.626V46.3189H136.894C137.303 46.3189 137.563 46.4419 137.676 46.688C137.786 46.9341 137.842 47.2563 137.842 47.6508V54.9474H139.051ZM139.051 51.5742V47.2599C139.19 47.0427 139.369 46.8527 139.587 46.688C139.697 46.6211 139.827 46.5632 139.977 46.5143C140.126 46.4672 140.291 46.4419 140.47 46.4419C140.745 46.4419 140.976 46.5143 141.165 46.6591C141.356 46.8002 141.523 46.9957 141.664 47.2454C141.784 47.4915 141.87 47.7847 141.925 48.1213C141.983 48.4543 142.012 48.8198 142.012 49.2143C142.012 49.5962 141.983 49.9563 141.925 50.2929C141.87 50.6259 141.769 50.919 141.621 51.1688C141.485 51.4149 141.313 51.6103 141.107 51.7551C140.899 51.8963 140.638 51.965 140.325 51.965C140.122 51.965 139.909 51.9252 139.688 51.842C139.471 51.7605 139.257 51.6719 139.051 51.5742Z" fill="#257C52"/>
<path d="M149.51 52.3776V48.7438C149.51 48.1412 149.444 47.6508 149.314 47.2744C149.184 46.898 149.01 46.6066 148.793 46.3985C148.57 46.2067 148.315 46.0764 148.026 46.0076C147.74 45.9406 147.448 45.9062 147.15 45.9062C146.927 45.9062 146.719 45.9189 146.527 45.9424C146.339 45.9624 146.147 45.9841 145.955 46.0076C145.545 46.1053 145.264 46.2284 145.116 46.3768C144.951 46.5414 144.855 46.7278 144.826 46.9341C144.797 47.1423 144.783 47.3612 144.783 47.5929H145.398C145.494 47.1549 145.668 46.8527 145.919 46.688C146.174 46.5252 146.495 46.4419 146.882 46.4419C147.305 46.4419 147.642 46.5849 147.888 46.869C148.008 47.0482 148.105 47.2888 148.178 47.5929C148.254 47.8933 148.294 48.2769 148.294 48.7438H147.888C147.419 48.7438 146.98 48.771 146.571 48.8234C146.16 48.8777 145.798 48.9809 145.485 49.1347C145.166 49.2704 144.915 49.4605 144.732 49.7066C144.548 49.9527 144.457 50.2621 144.457 50.6331C144.457 51.0005 144.524 51.3045 144.66 51.5452C144.799 51.7877 144.964 51.9831 145.152 52.1315C145.344 52.2673 145.554 52.3668 145.782 52.4283C146.008 52.4898 146.216 52.5224 146.404 52.5224C146.925 52.5224 147.334 52.4392 147.635 52.2763C147.939 52.1134 148.158 51.9415 148.294 51.7624H148.359L148.829 52.3776H149.51ZM148.294 49.2722V51.1036C148.158 51.3118 147.991 51.4981 147.794 51.661C147.595 51.8257 147.333 51.9071 147.005 51.9071C146.647 51.9071 146.354 51.804 146.122 51.5959C146.01 51.4855 145.916 51.3534 145.84 51.1977C145.767 51.0385 145.731 50.8503 145.731 50.6331C145.731 50.2241 145.921 49.8948 146.303 49.6487C146.688 49.3989 147.217 49.2722 147.888 49.2722H148.294Z" fill="#257C52"/>
<path d="M152.794 52.3776V47.2237C152.971 47.0319 153.174 46.8672 153.402 46.7315C153.628 46.5921 153.88 46.5215 154.155 46.5215C154.564 46.5215 154.904 46.6518 155.176 46.9124C155.315 47.0482 155.425 47.2364 155.509 47.477C155.59 47.7195 155.632 48.0037 155.632 48.3312V52.3776H156.841V48.3312C156.841 47.8535 156.775 47.4535 156.645 47.1296C156.515 46.8075 156.341 46.5559 156.124 46.3768C155.907 46.1886 155.662 46.0637 155.393 46.0004C155.127 45.9388 154.843 45.9062 154.539 45.9062C154.142 45.9062 153.797 45.9786 153.503 46.1234C153.209 46.2682 152.971 46.4238 152.794 46.5867H152.736C152.667 46.4238 152.548 46.2935 152.374 46.1958C152.204 46.0999 151.942 46.051 151.585 46.051H150.369V46.3189H150.637C151.046 46.3189 151.307 46.4419 151.419 46.688C151.529 46.9341 151.585 47.2563 151.585 47.6508V52.3776H152.794Z" fill="#257C52"/>
<path d="M161.257 52.5224L160.975 53.2608C160.877 53.5503 160.767 53.782 160.642 53.9557C160.521 54.133 160.383 54.2778 160.229 54.39C160.079 54.4859 159.913 54.5583 159.73 54.6072C159.545 54.6542 159.357 54.6796 159.165 54.6796V55.0704H159.578C159.809 55.0704 160.023 55.0451 160.222 54.9981C160.419 54.9492 160.6 54.8569 160.765 54.723C160.928 54.5818 161.083 54.3972 161.228 54.1656C161.373 53.934 161.512 53.6318 161.648 53.2608L164.276 46.051H163.602L161.916 50.7127L160.374 46.9921C160.238 46.641 160.036 46.3731 159.766 46.1886C159.5 46.0004 159.162 45.9062 158.753 45.9062H157.602V46.1741C157.958 46.2139 158.262 46.317 158.514 46.4853C158.769 46.65 158.964 46.9088 159.1 47.2599L161.257 52.5224Z" fill="#257C52"/>
<path d="M6.55745 29.324C7.24151 29.324 7.87489 29.4398 8.45399 29.6714C9.03308 29.8995 9.50722 30.1962 9.88001 30.5618C10.7052 31.387 11.1178 32.4782 11.1178 33.8337C11.1178 35.1855 10.6853 36.2659 9.8221 37.0766C8.99689 37.8874 7.81879 38.2927 6.28962 38.2927C5.63813 38.2927 5.03189 38.186 4.4727 37.9742C4.33155 37.9018 4.19944 37.8331 4.07457 37.7715C3.95333 37.7136 3.83027 37.6485 3.7054 37.5761C3.59863 38.2457 3.40499 38.7958 3.1263 39.2265C2.8458 39.6554 2.52911 40.0029 2.17803 40.2689C1.82515 40.5295 1.47769 40.7195 1.13566 40.8407C0.791823 40.9656 0.516753 41.0543 0.303211 41.1086C0.129482 41.1466 0.0335694 41.1393 0.0136628 41.0869C-0.0189115 41.047 0.00642415 41.0036 0.0932886 40.9566C0.480559 40.7249 0.780965 40.4643 0.998126 40.1748C1.21891 39.8852 1.39264 39.5812 1.51931 39.2627C1.62427 38.9623 1.69485 38.6637 1.72923 38.3651C1.76181 38.0701 1.77991 37.7896 1.77991 37.5254V33.4935C1.798 33.2093 1.83782 32.9433 1.89573 32.6972C1.95725 32.4511 2.03507 32.205 2.12736 31.9589C2.63407 30.8151 3.45928 30.0442 4.603 29.6425C5.18209 29.4307 5.83358 29.324 6.55745 29.324ZM6.47782 30.0334H6.28962C6.23533 30.0533 6.1557 30.0623 6.05074 30.0623C5.41735 30.1691 4.89979 30.4749 4.49442 30.9816C4.35326 31.1807 4.24106 31.3707 4.1542 31.5535C4.06733 31.7381 3.99676 31.9516 3.94428 32.1977C3.83751 32.5705 3.78503 33.0193 3.78503 33.5441C3.78503 34.0907 3.83751 34.5648 3.94428 34.9702C4.01666 35.2507 4.10715 35.5058 4.21935 35.7375C4.33517 35.9655 4.46184 36.1917 4.603 36.4179C5.11333 37.1562 5.76481 37.5254 6.55745 37.5254C7.38266 37.5254 8.03052 37.1997 8.50466 36.5482C8.75077 36.2351 8.91726 35.8895 9.00413 35.5131C9.09461 35.133 9.14166 34.6517 9.14166 34.0726C9.14166 33.0356 8.98241 32.2086 8.66391 31.5897C8.644 31.5571 8.6241 31.5173 8.606 31.4739C8.59152 31.4304 8.57343 31.3906 8.55533 31.3508C8.48656 31.2839 8.44313 31.2241 8.42503 31.1698C7.9328 30.4134 7.28313 30.0334 6.47782 30.0334Z" fill="#257C52"/>
<path d="M15.5443 25.6828V25.9217C15.0376 25.9217 14.7209 26.0339 14.596 26.2547C14.4748 26.4719 14.415 26.7578 14.415 27.1089V37.0766H12.4316V25.6611L15.5443 25.6828Z" fill="#257C52"/>
<path d="M18.9482 29.1357C19.5997 29.1357 20.1788 29.2425 20.6855 29.4542C21.1959 29.6678 21.6284 29.9501 21.9813 30.3012C22.7196 31.0739 23.0888 32.0149 23.0888 33.1243V33.7251C23.1756 35.5203 24.0171 36.4179 25.6151 36.4179H26.0132V37.0766H24.5365C24.1836 37.0585 23.8941 37.0042 23.6679 36.9173C23.4399 36.8305 23.1847 36.6748 22.9006 36.4468C22.6201 36.2351 22.3939 35.9691 22.2201 35.6506C21.8672 36.0903 21.413 36.4378 20.8593 36.6929C20.3037 36.9499 19.6667 37.0766 18.9482 37.0766H15.8066V36.4179H18.6008C19.4296 36.4179 20.0648 36.103 20.5046 35.4696C20.7109 35.171 20.8629 34.8181 20.9606 34.4128C21.0619 34.0074 21.1126 33.5785 21.1126 33.1243C21.1126 32.1742 20.9045 31.4196 20.4901 30.8586C20.0739 30.2939 19.4368 30.0116 18.5791 30.0116C17.9602 30.0116 17.4444 30.1401 17.03 30.3953C16.6192 30.6468 16.3875 31.1246 16.3351 31.8285H15.9948C15.9948 31.2169 16.0111 30.7608 16.0455 30.4604C16.0781 30.1618 16.212 29.9157 16.4436 29.7221C16.6499 29.5103 16.9648 29.3601 17.3847 29.2733C17.8081 29.1828 18.3293 29.1357 18.9482 29.1357Z" fill="#257C52"/>
<path d="M30.443 25.8711C30.7217 25.8711 30.9533 25.9688 31.1379 26.1606C31.3261 26.3543 31.4202 26.5913 31.4202 26.87C31.4202 27.1361 31.3261 27.3659 31.1379 27.5577C30.9533 27.7513 30.7217 27.8473 30.443 27.8473C30.1625 27.8473 29.929 27.7513 29.7408 27.5577C29.5562 27.3659 29.4658 27.1361 29.4658 26.87C29.4658 26.5913 29.5562 26.3543 29.7408 26.1606C29.929 25.9688 30.1625 25.8711 30.443 25.8711ZM32.8969 25.8711C33.1756 25.8711 33.4127 25.9688 33.6063 26.1606C33.7981 26.3543 33.8959 26.5913 33.8959 26.87C33.8959 27.1361 33.7981 27.3659 33.6063 27.5577C33.4127 27.7513 33.1756 27.8473 32.8969 27.8473C32.6309 27.8473 32.4011 27.7513 32.2092 27.5577C32.0156 27.3659 31.9197 27.1361 31.9197 26.87C31.9197 26.5913 32.0156 26.3543 32.2092 26.1606C32.4011 25.9688 32.6309 25.8711 32.8969 25.8711ZM36.9795 29.5339H36.7189C36.3317 29.5339 36.0856 29.6406 35.9806 29.8524C35.8738 30.0659 35.8213 30.3446 35.8213 30.6921V36.4179H39.0426V37.0766H24.9561V36.4179H29.5164C28.8161 36.0849 28.2678 35.6397 27.8733 35.0787C27.4769 34.5141 27.2797 33.8626 27.2797 33.1243C27.2797 31.9281 27.7791 30.9816 28.7781 30.2867C29.7806 29.5918 31.1343 29.2443 32.839 29.2443H36.9795V29.5339ZM33.8669 36.4179V30.1926C33.3602 30.0333 32.8281 29.9736 32.2744 30.0116C31.7188 30.046 31.2139 30.1854 30.7615 30.4315C30.3018 30.6595 29.929 31.0015 29.6395 31.4594C29.3499 31.919 29.2052 32.4728 29.2052 33.1243C29.2052 34.1232 29.4802 34.9014 30.0304 35.4551C30.5841 36.0107 31.2845 36.331 32.1296 36.4179H33.8669Z" fill="#257C52"/>
<path d="M40.0942 25.8711C40.3729 25.8711 40.6045 25.9688 40.7891 26.1606C40.9719 26.3543 41.0642 26.5913 41.0642 26.87C41.0642 27.1361 40.9719 27.3659 40.7891 27.5577C40.6045 27.7513 40.3729 27.8473 40.0942 27.8473C39.8082 27.8473 39.5748 27.7513 39.392 27.5577C39.2074 27.3659 39.1169 27.1361 39.1169 26.87C39.1169 26.5913 39.2074 26.3543 39.392 26.1606C39.5748 25.9688 39.8082 25.8711 40.0942 25.8711ZM42.5409 25.8711C42.825 25.8711 43.0638 25.9688 43.2575 26.1606C43.4493 26.3543 43.547 26.5913 43.547 26.87C43.547 27.1361 43.4493 27.3659 43.2575 27.5577C43.0638 27.7513 42.825 27.8473 42.5409 27.8473C42.2803 27.8473 42.0522 27.7513 41.8604 27.5577C41.6668 27.3659 41.5709 27.1361 41.5709 26.87C41.5709 26.5913 41.6668 26.3543 41.8604 26.1606C42.0522 25.9688 42.2803 25.8711 42.5409 25.8711ZM43.4674 29.6425H43.1996C42.8123 29.6425 42.5662 29.7547 42.4612 29.9754C42.3599 30.1926 42.3092 30.4785 42.3092 30.8296V36.4179H45.8417V37.0766H37.9805V36.4179H40.3258V29.3746H43.4674V29.6425Z" fill="#257C52"/>
<path d="M60.3681 29.5628H60.1292C59.7275 29.5628 59.4796 29.675 59.3837 29.8957C59.2859 30.1129 59.2389 30.3988 59.2389 30.7499V33.754C59.2389 34.666 58.9204 35.4406 58.2834 36.0776C57.65 36.7435 56.8429 37.0765 55.8584 37.0765C55.3843 37.0765 54.9101 36.9716 54.4324 36.758C54.2044 36.6531 53.9908 36.5173 53.7881 36.3527C53.5855 36.1844 53.4497 35.9762 53.3828 35.7301C53.1367 36.1554 52.8001 36.4739 52.3766 36.6856C51.9568 36.8937 51.517 37.0078 51.0592 37.0259C50.585 37.0403 50.1254 36.9571 49.6766 36.7725C49.2278 36.5897 48.8622 36.3056 48.5835 35.9183C48.265 36.2332 47.9194 36.5047 47.5484 36.7363C47.181 36.9643 46.734 37.0765 46.2092 37.0765H44.7832V36.4178H45.1524C45.4311 36.4178 45.7061 36.3708 45.9776 36.273C46.2527 36.1771 46.506 36.0233 46.7377 35.8098C46.944 35.598 47.1177 35.3248 47.2588 34.9918C47.4036 34.6588 47.4923 34.2462 47.5267 33.754V29.8233H50.6393V30.0912H50.4004C49.9951 30.0912 49.7345 30.2034 49.6187 30.4242C49.5065 30.6413 49.4522 30.9272 49.4522 31.2783V34.9701C49.4522 35.3718 49.5969 35.7193 49.8865 36.0124C50.176 36.302 50.5235 36.4468 50.9289 36.4468C51.3342 36.4468 51.6672 36.302 51.9278 36.0124C52.192 35.7193 52.3422 35.3718 52.3766 34.9701V29.5628H55.5182V29.8233H55.2504C54.8631 29.8233 54.617 29.8867 54.512 30.0116C54.4107 30.1328 54.36 30.3699 54.36 30.7209V35.1221C54.3926 35.475 54.5446 35.7736 54.816 36.0197C55.0911 36.2658 55.4114 36.3888 55.7788 36.3888C56.1842 36.3888 56.5316 36.2495 56.8212 35.969C57.1107 35.6903 57.2555 35.3465 57.2555 34.9411V29.2949H60.3681V29.5628Z" fill="#257C52"/>
<path d="M68.935 25.9217H68.6744C68.3415 25.9217 68.1171 26.0068 68.0012 26.1751C67.8854 26.3398 67.8094 26.5642 67.7768 26.8483V33.725C67.8094 34.6226 68.0519 35.2958 68.5007 35.7446C68.9495 36.1934 69.5521 36.4178 70.3104 36.4178H70.7013V37.0766H69.2246C68.8771 37.0585 68.5876 37.0042 68.3559 36.9173C68.1279 36.8304 67.8746 36.6748 67.5959 36.4468C67.3498 36.2875 67.1634 36.0921 67.0385 35.8605C66.6856 36.3201 66.2459 36.6386 65.7211 36.816C65.1944 36.9897 64.6497 37.0766 64.0851 37.0766C63.4336 37.0766 62.8708 36.968 62.3985 36.7508C61.9244 36.53 61.5461 36.2785 61.262 35.998V35.2814C61.5461 35.5818 61.8719 35.846 62.2392 36.0776C62.6102 36.3056 63.0156 36.4178 63.4553 36.4178C63.734 36.4178 64.0091 36.3744 64.2806 36.2875C64.5556 36.1971 64.7981 36.0469 65.0117 35.8387C65.218 35.627 65.3917 35.3538 65.5329 35.0208C65.6776 34.6878 65.7663 34.2752 65.8007 33.783V25.6611H68.935V25.9217ZM63.3178 26.7397V32.0384C63.3178 32.2701 63.3287 32.5216 63.354 32.7913C63.383 33.0627 63.4499 33.3305 63.5567 33.5947C63.6616 33.8752 63.8118 34.1485 64.0055 34.4127C64.1973 34.6787 64.4706 34.9086 64.8235 35.1004C64.9103 35.1348 64.9357 35.1692 64.9031 35.2017C64.8832 35.256 64.7963 35.2651 64.6425 35.2307C64.4434 35.1782 64.1865 35.0968 63.8679 34.9846C63.5531 34.8688 63.24 34.695 62.9269 34.4634C62.6084 34.2173 62.3207 33.906 62.0655 33.5296C61.814 33.1532 61.642 32.6573 61.5516 32.0384V28.0571C61.5516 27.7441 61.5027 27.4907 61.4068 27.2971C61.3091 27.0998 61.0847 27.0003 60.7336 27.0003H60.502V26.7397H63.3178Z" fill="#257C52"/>
<path d="M75.6039 25.6611V25.9507C75.0972 25.9507 74.7751 26.0575 74.6412 26.2692C74.5109 26.4773 74.4457 26.7578 74.4457 27.1089V33.4138C74.4457 34.5195 74.129 35.408 73.4975 36.0776C73.1971 36.3925 72.8496 36.6386 72.4551 36.816C72.0588 36.9897 71.6245 37.0766 71.1521 37.0766H69.6465V36.4178H70.0953C70.374 36.4178 70.6545 36.3708 70.935 36.2731C71.2191 36.1772 71.467 36.0233 71.6806 35.8098C71.8869 35.5981 72.0606 35.3248 72.2017 34.9918C72.3465 34.6588 72.4352 34.2462 72.4696 33.754V25.6611H75.6039Z" fill="#257C52"/>
<path d="M83.4944 25.8711C83.7731 25.8711 84.0102 25.9688 84.2038 26.1606C84.3957 26.3543 84.4934 26.5841 84.4934 26.8483C84.4934 27.1288 84.3957 27.3659 84.2038 27.5577C84.0102 27.7513 83.7731 27.8473 83.4944 27.8473C83.2284 27.8473 82.9986 27.7513 82.8068 27.5577C82.6131 27.3659 82.5172 27.1288 82.5172 26.8483C82.5172 26.5841 82.6131 26.3543 82.8068 26.1606C82.9986 25.9688 83.2284 25.8711 83.4944 25.8711ZM85.6299 29.5845H85.3693C84.982 29.5845 84.7359 29.6913 84.6309 29.9031C84.5241 30.1166 84.4717 30.3989 84.4717 30.75V37.0766C84.4717 37.7806 84.3287 38.3524 84.0446 38.7922C83.7641 39.2301 83.4401 39.583 83.0746 39.849C82.6873 40.1096 82.3037 40.2996 81.9236 40.4209C81.5472 40.5458 81.2541 40.6344 81.0405 40.6887C80.8668 40.7213 80.7709 40.7122 80.751 40.6598C80.7184 40.6254 80.7437 40.5819 80.8306 40.5295C81.2179 40.3014 81.5183 40.0445 81.7354 39.7549C81.9562 39.4654 82.1299 39.1613 82.2566 38.8428C82.3616 38.5424 82.4322 38.2438 82.4665 37.9452C82.4991 37.6448 82.5172 37.3662 82.5172 37.1056V29.295H85.6299V29.5845Z" fill="#143E71"/>
<path d="M90.0589 25.6611V25.9217C89.5522 25.9217 89.2301 26.0339 89.0962 26.2547C88.9659 26.4719 88.9007 26.7578 88.9007 27.1089V36.4178H91.2171V37.0766H86.9463V25.6611H90.0589Z" fill="#143E71"/>
<path d="M92.5094 30.8803L94.7027 28.6653C95.9333 29.8959 96.9558 30.9219 97.7719 31.7417C98.5917 32.5579 99.2649 33.2184 99.7915 33.7251C100.038 33.9912 100.262 34.2246 100.465 34.4273C100.667 34.63 100.838 34.8019 100.979 34.9412L101.637 35.6C101.797 35.7592 101.914 35.8931 101.992 35.9981C102.068 36.0994 102.169 36.2406 102.296 36.4179H104.591V37.0767H102.636C102.814 37.5146 102.911 37.9381 102.926 38.3434C102.944 38.7488 102.911 39.118 102.825 39.4509C102.752 39.7839 102.645 40.0807 102.506 40.3413C102.365 40.6055 102.253 40.8191 102.166 40.9783C102.074 41.1177 102.003 41.181 101.956 41.1665C101.902 41.1665 101.893 41.1195 101.927 41.029C102.032 40.6091 102.064 40.2128 102.021 39.8418C101.978 39.4745 101.884 39.1415 101.739 38.8429C101.598 38.5425 101.431 38.2747 101.239 38.0394C101.046 37.8023 100.863 37.587 100.689 37.3952L100.371 37.0767H90.1641V36.4179H99.7409L94.3336 31.0613C94.0874 30.8152 93.8486 30.6541 93.6169 30.5763C93.3889 30.5003 93.1428 30.6016 92.8786 30.8803L92.6976 31.0613L92.5094 30.8803ZM95.7017 38.604C95.9804 38.604 96.2174 38.6999 96.4111 38.8936C96.6083 39.0854 96.7078 39.3152 96.7078 39.5812C96.7078 39.8599 96.6083 40.097 96.4111 40.2906C96.2174 40.4879 95.9804 40.5874 95.7017 40.5874C95.4411 40.5874 95.2112 40.4879 95.014 40.2906C94.8204 40.097 94.7244 39.8599 94.7244 39.5812C94.7244 39.3152 94.8204 39.0854 95.014 38.8936C95.2112 38.6999 95.4411 38.604 95.7017 38.604Z" fill="#143E71"/>
<path d="M107.303 25.8711C107.581 25.8711 107.818 25.9688 108.012 26.1606C108.209 26.3543 108.309 26.5913 108.309 26.87C108.309 27.1361 108.209 27.3659 108.012 27.5577C107.818 27.7513 107.581 27.8473 107.303 27.8473C107.037 27.8473 106.807 27.7513 106.615 27.5577C106.421 27.3659 106.325 27.1361 106.325 26.87C106.325 26.5913 106.421 26.3543 106.615 26.1606C106.807 25.9688 107.037 25.8711 107.303 25.8711ZM109.467 29.6425H109.199C108.797 29.6425 108.549 29.7547 108.454 29.9754C108.356 30.1926 108.309 30.4785 108.309 30.8296V33.2763C108.309 33.8608 108.207 34.3874 108.005 34.8543C107.802 35.3176 107.541 35.7067 107.223 36.0198C106.557 36.7255 105.819 37.0766 105.008 37.0766H103.531V36.4179H103.951C104.235 36.4179 104.512 36.3744 104.784 36.2876C105.059 36.1971 105.308 36.0469 105.536 35.8388C105.748 35.6271 105.924 35.3538 106.065 35.0208C106.204 34.6878 106.291 34.2752 106.325 33.783V29.3746H109.467V29.6425Z" fill="#143E71"/>
<path d="M113.74 25.6828V25.9217C113.228 25.9217 112.904 26.0339 112.77 26.2547C112.64 26.4719 112.575 26.7578 112.575 27.1089V37.0766H110.628V25.6611L113.74 25.6828ZM111.836 38.6039C112.401 38.6039 112.779 38.6727 112.973 38.8139C113.078 38.9043 113.139 39.0021 113.154 39.1034C113.172 39.2084 113.183 39.3676 113.183 39.5812H113.024C112.989 39.335 112.879 39.1631 112.691 39.0672C112.506 38.9695 112.274 38.9224 111.996 38.9224C111.59 38.9224 111.295 39.0256 111.112 39.2337C110.928 39.4454 110.837 39.7205 110.837 40.0589C110.837 40.41 110.928 40.6995 111.112 40.9276C111.295 41.1538 111.59 41.2678 111.996 41.2678H113.262V41.6369H109.6V41.2967H110.758C110.211 41.0307 109.94 40.6181 109.94 40.0589C109.94 39.6535 110.106 39.3079 110.439 39.0238C110.772 38.7433 111.237 38.6039 111.836 38.6039Z" fill="#143E71"/>
<path d="M122.597 25.8711C122.875 25.8711 123.107 25.9688 123.291 26.1606C123.48 26.3543 123.574 26.5913 123.574 26.87C123.574 27.1361 123.48 27.3659 123.291 27.5577C123.107 27.7513 122.875 27.8473 122.597 27.8473C122.316 27.8473 122.083 27.7513 121.894 27.5577C121.71 27.3659 121.619 27.1361 121.619 26.87C121.619 26.5913 121.71 26.3543 121.894 26.1606C122.083 25.9688 122.316 25.8711 122.597 25.8711ZM125.05 25.8711C125.329 25.8711 125.566 25.9688 125.76 26.1606C125.952 26.3543 126.049 26.5913 126.049 26.87C126.049 27.1361 125.952 27.3659 125.76 27.5577C125.566 27.7513 125.329 27.8473 125.05 27.8473C124.784 27.8473 124.555 27.7513 124.363 27.5577C124.169 27.3659 124.073 27.1361 124.073 26.87C124.073 26.5913 124.169 26.3543 124.363 26.1606C124.555 25.9688 124.784 25.8711 125.05 25.8711ZM129.111 29.5845H128.844C128.456 29.5845 128.21 29.6967 128.105 29.9175C128.004 30.1347 127.953 30.4206 127.953 30.7717V36.4179H130.299V37.0766H123.813C122.702 37.044 121.708 36.6749 120.83 35.9691C120.41 35.618 120.067 35.209 119.802 34.7457C119.536 34.2788 119.404 33.754 119.404 33.1749C119.404 31.9987 119.906 31.0612 120.91 30.3663C121.913 29.6714 123.266 29.324 124.971 29.324H129.111V29.5845ZM125.97 36.4179V30.2722C125.463 30.113 124.931 30.0533 124.377 30.0913C123.822 30.1256 123.317 30.265 122.864 30.5111C122.405 30.7572 122.032 31.1047 121.742 31.5535C121.453 32.0023 121.308 32.5506 121.308 33.1967C121.308 34.0943 121.543 34.8525 122.017 35.4696C122.229 35.7501 122.488 35.9799 122.792 36.1573C123.1 36.331 123.44 36.4179 123.813 36.4179H125.97Z" fill="#257C52"/>
<path d="M136.812 26.0015C137.212 26.0015 137.583 26.1661 137.927 26.4937C138.274 26.8176 138.571 27.1361 138.817 27.4492L138.578 27.6881L138.419 27.5288C138.332 27.442 138.278 27.3985 138.26 27.3985C137.748 26.9787 137.263 26.8267 136.805 26.9425C136.35 27.0547 135.914 27.3117 135.494 27.717L133.75 29.4543H140.265C140.916 29.4543 141.495 29.5701 142.002 29.8018C142.512 30.0298 142.954 30.3356 143.327 30.7211C144.065 31.5137 144.434 32.4801 144.434 33.6238V37.0767H129.24V36.418H142.451V33.6238C142.451 32.6936 142.237 31.9119 141.814 31.2785C141.394 30.6415 140.753 30.323 139.896 30.323H131.586L134.727 27.2393C135.133 26.8538 135.509 26.557 135.856 26.3489C136.207 26.1372 136.526 26.0214 136.812 26.0015Z" fill="#257C52"/>
<path d="M149.306 29.5845H149.045C148.658 29.5845 148.412 29.6912 148.307 29.903C148.2 30.1165 148.147 30.3988 148.147 30.7499V36.4178H151.361V37.0765H148.118C148.118 37.7805 147.977 38.3523 147.699 38.7921C147.418 39.23 147.092 39.5829 146.721 39.8489C146.354 40.1095 145.979 40.2996 145.599 40.4208C145.223 40.5457 144.93 40.6343 144.716 40.6886C144.543 40.7212 144.447 40.7122 144.427 40.6597C144.394 40.6253 144.42 40.5819 144.506 40.5294C144.894 40.3014 145.194 40.0444 145.411 39.7548C145.632 39.4653 145.806 39.1613 145.932 38.8428C146.037 38.5424 146.108 38.2438 146.142 37.9452C146.175 37.6448 146.193 37.3661 146.193 37.1055V29.2949H149.306V29.5845Z" fill="#257C52"/>
<path d="M158.928 23.6272C159.212 23.6272 159.451 23.7249 159.645 23.9167C159.836 24.1104 159.934 24.3493 159.934 24.6334C159.934 24.894 159.836 25.122 159.645 25.3138C159.451 25.5074 159.212 25.6034 158.928 25.6034C158.667 25.6034 158.439 25.5074 158.247 25.3138C158.054 25.122 157.958 24.894 157.958 24.6334C157.958 24.3493 158.054 24.1104 158.247 23.9167C158.439 23.7249 158.667 23.6272 158.928 23.6272ZM157.719 25.8712C157.998 25.8712 158.229 25.9689 158.414 26.1607C158.602 26.3544 158.696 26.5914 158.696 26.8701C158.696 27.1362 158.602 27.366 158.414 27.5578C158.229 27.7514 157.998 27.8474 157.719 27.8474C157.439 27.8474 157.205 27.7514 157.017 27.5578C156.832 27.366 156.742 27.1362 156.742 26.8701C156.742 26.5914 156.832 26.3544 157.017 26.1607C157.205 25.9689 157.439 25.8712 157.719 25.8712ZM160.173 25.8712C160.452 25.8712 160.689 25.9689 160.882 26.1607C161.074 26.3544 161.172 26.5914 161.172 26.8701C161.172 27.1362 161.074 27.366 160.882 27.5578C160.689 27.7514 160.452 27.8474 160.173 27.8474C159.907 27.8474 159.677 27.7514 159.485 27.5578C159.292 27.366 159.196 27.1362 159.196 26.8701C159.196 26.5914 159.292 26.3544 159.485 26.1607C159.677 25.9689 159.907 25.8712 160.173 25.8712ZM165.892 29.5629H165.653C165.251 29.5629 165.003 29.6751 164.907 29.8959C164.809 30.1131 164.762 30.399 164.762 30.7501V33.7541C164.762 34.6662 164.444 35.4408 163.807 36.0778C163.173 36.7437 162.366 37.0767 161.382 37.0767C160.908 37.0767 160.434 36.9717 159.956 36.7582C159.728 36.6532 159.514 36.5175 159.312 36.3528C159.109 36.1845 158.973 35.9764 158.906 35.7303C158.66 36.1556 158.324 36.4741 157.9 36.6858C157.48 36.8939 157.04 37.0079 156.583 37.026C156.108 37.0405 155.649 36.9573 155.2 36.7727C154.751 36.5899 154.386 36.3058 154.107 35.9185C153.788 36.2334 153.443 36.5048 153.072 36.7365C152.704 36.9645 152.257 37.0767 151.733 37.0767H150.307V36.418H150.676C150.955 36.418 151.23 36.3709 151.501 36.2732C151.776 36.1773 152.029 36.0235 152.261 35.8099C152.467 35.5982 152.641 35.3249 152.782 34.992C152.927 34.659 153.016 34.2464 153.05 33.7541V29.8235H156.163V30.0914H155.924C155.519 30.0914 155.258 30.2036 155.142 30.4243C155.03 30.6415 154.976 30.9274 154.976 31.2785V34.9702C154.976 35.372 155.12 35.7194 155.41 36.0126C155.699 36.3022 156.047 36.4469 156.452 36.4469C156.858 36.4469 157.191 36.3022 157.451 36.0126C157.715 35.7194 157.866 35.372 157.9 34.9702V29.5629H161.042V29.8235H160.774C160.387 29.8235 160.14 29.8869 160.035 30.0117C159.934 30.133 159.883 30.37 159.883 30.7211V35.1223C159.916 35.4751 160.068 35.7737 160.339 36.0199C160.615 36.266 160.935 36.389 161.302 36.389C161.708 36.389 162.055 36.2497 162.345 35.9692C162.634 35.6905 162.779 35.3467 162.779 34.9413V29.2951H165.892V29.5629Z" fill="#257C52"/>
</g>
<defs>
<clipPath id="clip0_7_5616">
<rect width="246" height="70.1864" fill="white"/>
</clipPath>
<clipPath id="clip1_7_5616">
<rect width="58.3729" height="70.1864" fill="white" transform="translate(187.627)"/>
</clipPath>
</defs>
</svg>
